<svg width="8" height="12" viewBox="0 0 8 12" fill="none" xmlns="http://www.w3.org/2000/svg">
<path d="M0.61538 12C0.439007 12 0.27101 11.9241 0.154263 11.7916C0.0375054 11.6591 -0.0170284 11.4827 0.00467529 11.3072C0.0263787 11.1316 0.122119 10.9739 0.267589 10.8739L5.80605 7.05754V7.05768C6.15523 6.81844 6.36401 6.42193 6.36401 5.99784C6.36401 5.57393 6.15522 5.17727 5.80605 4.93815L0.267589 1.12177C0.0892927 0.996027 -0.00947123 0.785026 0.00824832 0.567157C0.0258307 0.349133 0.15715 0.156854 0.35344 0.0616918C0.54973 -0.0336154 0.781607 -0.0176399 0.963058 0.103699L6.50152 3.92008C7.18558 4.38933 7.59465 5.16678 7.59465 5.99786C7.59465 6.8289 7.18558 7.60653 6.50152 8.07578L0.963058 11.8922V11.892C0.860584 11.9624 0.739431 12 0.615394 12L0.61538 12Z" fill="white"/>
</svg>
