<svg width="138" height="28" viewBox="0 0 138 28" fill="none" xmlns="http://www.w3.org/2000/svg">
<path d="M37.2827 9.08798H38.7785L42.9708 18.8259H40.9866L40.0809 16.5974H35.8581L34.9831 18.8259H33.0396L37.2725 9.08798H37.2827ZM39.4806 15.1118L37.9848 11.1536L36.4585 15.1118H39.4806Z" fill="black"/>
<path d="M44.833 9.08798H46.8274L49.4832 16.4448L52.2204 9.08798H54.0926L50.1548 18.8259H48.659L44.833 9.08798Z" fill="black"/>
<path d="M60.2794 9.08798H61.7752L65.9674 18.8259H63.9832L63.0776 16.5974H58.8548L57.9797 18.8259H56.0464L60.2794 9.08798ZM62.4773 15.1118L60.9815 11.1536L59.4552 15.1118H62.4773Z" fill="black"/>
<path d="M69.8032 9.08798H71.533V17.2588H75.6744V18.8259H69.8032V9.08798Z" fill="black"/>
<path d="M82.8282 9.08798H84.324L88.5163 18.8259H86.532L85.6264 16.5974H81.4036L80.5285 18.8259H78.5952L82.8282 9.08798ZM85.0261 15.1118L83.5303 11.1536L82.004 15.1118H85.0261Z" fill="black"/>
<path d="M92.3521 9.08798H94.6517L99.3629 16.3227H99.3934V9.08798H101.123V18.8259H98.9254L94.1124 11.3571H94.0819V18.8259H92.3521V9.08798Z" fill="black"/>
<path d="M112.723 11.3673C112.367 10.9806 112.021 10.7262 111.675 10.5939C111.349 10.4617 111.014 10.4006 110.668 10.4006C110.159 10.4006 109.701 10.4922 109.294 10.6753C108.887 10.8483 108.541 11.0925 108.246 11.4181C107.951 11.7336 107.727 12.0999 107.554 12.5171C107.401 12.9343 107.32 13.3922 107.32 13.8806C107.32 14.3995 107.401 14.888 107.554 15.3255C107.717 15.7631 107.951 16.1497 108.246 16.4652C108.541 16.7908 108.887 17.035 109.294 17.2181C109.711 17.4013 110.169 17.4929 110.668 17.4929C111.065 17.4929 111.441 17.4013 111.807 17.2181C112.184 17.0248 112.53 16.7195 112.855 16.3125L114.28 17.3301C113.842 17.9304 113.303 18.3781 112.672 18.6529C112.041 18.9276 111.37 19.0701 110.647 19.0701C109.894 19.0701 109.202 18.948 108.572 18.7139C107.951 18.4697 107.412 18.1238 106.954 17.6862C106.506 17.2385 106.15 16.6992 105.895 16.0785C105.641 15.4578 105.509 14.7659 105.509 14.0027C105.509 13.2192 105.641 12.5171 105.895 11.8862C106.15 11.2452 106.506 10.6957 106.954 10.248C107.412 9.80026 107.951 9.45429 108.572 9.22026C109.202 8.97605 109.894 8.85394 110.647 8.85394C111.309 8.85394 111.919 8.97605 112.479 9.21008C113.049 9.44412 113.578 9.83078 114.056 10.3904L112.713 11.3774L112.723 11.3673Z" fill="black"/>
<path d="M118.208 9.08798H119.938V12.9648H124.486V9.08798H126.226V18.8259H124.486V14.5318H119.938V18.8259H118.208V9.08798Z" fill="black"/>
<path d="M131.151 9.08798H137.592V10.655H132.881V13.0462H137.348V14.6132H132.881V17.2588H137.846V18.8259H131.151V9.08798Z" fill="black"/>
<path fill-rule="evenodd" clip-rule="evenodd" d="M27.9214 13.9618C27.9214 21.6748 21.6737 27.9225 13.9607 27.9225C6.24771 27.9225 0 21.6748 0 13.9618C0 6.24884 6.24771 0.00112915 13.9607 0.00112915C21.6737 0.00112915 27.9214 6.24884 27.9214 13.9618ZM10.0024 19.5176H7.29578C6.72596 19.5176 6.44104 19.5176 6.27824 19.4057C6.09508 19.2836 5.98315 19.0902 5.9628 18.8664C5.95262 18.6629 6.09508 18.4187 6.36982 17.9201L13.0652 6.12674C13.3502 5.62814 13.4926 5.37375 13.6758 5.28218C13.8691 5.18042 14.1031 5.18042 14.2965 5.28218C14.4796 5.37375 14.6221 5.62814 14.907 6.12674L16.2807 8.52814L16.2909 8.53831C16.5961 9.07761 16.7589 9.35235 16.82 9.63726C16.8912 9.9527 16.8912 10.2783 16.82 10.5937C16.7488 10.8787 16.5961 11.1534 16.2807 11.7029L12.7702 17.9201L12.76 17.9404C12.4547 18.4797 12.2919 18.7544 12.0782 18.9681C11.8442 19.192 11.5593 19.3548 11.2438 19.4565C10.9589 19.5379 10.6435 19.5379 10.0024 19.5379V19.5176ZM16.8403 19.5176H20.7273C21.2972 19.5176 21.5923 19.5176 21.7551 19.4057C21.9382 19.2836 22.0603 19.0801 22.0705 18.8664C22.0807 18.673 21.9382 18.4288 21.6737 17.9709C21.6635 17.9506 21.6533 17.9404 21.6431 17.9201L19.6996 14.5927L19.6793 14.552C19.4045 14.0941 19.2723 13.8601 19.0891 13.7685C18.8958 13.6667 18.6617 13.6667 18.4684 13.7685C18.2852 13.8601 18.1428 14.1043 17.8579 14.5927L15.9245 17.9201L15.9144 17.9302C15.6295 18.4187 15.487 18.6629 15.4972 18.8664C15.5073 19.0902 15.6193 19.2836 15.8126 19.4057C15.9856 19.5176 16.2705 19.5176 16.8403 19.5176Z" fill="#E84142"/>
</svg>
