<svg width="142" height="28" viewBox="0 0 142 28" fill="none" xmlns="http://www.w3.org/2000/svg">
<g clip-path="url(#clip0_269_2841)">
<path d="M10.2545 11.7653L15.6926 6.32936L21.133 11.7697L24.2954 8.60501L15.6926 0L7.08984 8.6028L10.2545 11.7653Z" fill="#F3BA2F"/>
<path d="M1.69043 14.0005L4.85395 10.837L8.01747 14.0005L4.85395 17.164L1.69043 14.0005Z" fill="#F3BA2F"/>
<path d="M10.2546 16.2347L15.6927 21.6728L21.133 16.2325L24.2977 19.3928L24.2955 19.395L15.6927 28L7.08987 19.3994L7.08545 19.395L10.2546 16.2347Z" fill="#F3BA2F"/>
<path d="M23.3623 14.0013L26.5258 10.8377L29.6893 14.0013L26.5258 17.1648L23.3623 14.0013Z" fill="#F3BA2F"/>
<path d="M18.9017 13.9989L15.6928 10.7878L13.3199 13.1607L13.0456 13.4328L12.4839 13.9945L12.4795 13.9989L12.4839 14.0055L15.6928 17.2122L18.9017 14.0011L18.9039 13.9989H18.9017Z" fill="#F3BA2F"/>
<path d="M34.6255 6.78494H41.5077C43.215 6.78494 44.5065 7.22725 45.3823 8.11185C45.7122 8.43862 45.9724 8.82902 46.1469 9.25936C46.3213 9.6897 46.4066 10.151 46.3974 10.6153V10.6573C46.4033 11.0376 46.3504 11.4166 46.2404 11.7808C46.1424 12.0942 46.0002 12.3921 45.818 12.6654C45.6481 12.923 45.4426 13.1553 45.2076 13.3554C44.978 13.553 44.7264 13.7237 44.4579 13.864C45.2323 14.1337 45.9286 14.5894 46.4858 15.1909C46.9783 15.7512 47.2245 16.5252 47.2245 17.513V17.555C47.2385 18.1719 47.1043 18.7832 46.8331 19.3375C46.5703 19.8482 46.1851 20.2859 45.7118 20.6113C45.1768 20.97 44.5811 21.2285 43.9537 21.3743C43.2082 21.5511 42.4441 21.6365 41.678 21.6286H34.6255V6.78494ZM40.8177 12.787C41.4132 12.8158 42.0057 12.6877 42.5361 12.4155C42.7429 12.2946 42.9118 12.1183 43.0236 11.9065C43.1353 11.6947 43.1856 11.4557 43.1686 11.2168V11.1748C43.1795 10.9547 43.1348 10.7353 43.0386 10.537C42.9423 10.3387 42.7976 10.1679 42.6179 10.0403C42.2508 9.77933 41.7208 9.64886 41.0278 9.64886H37.8079V12.787H40.8177ZM41.6869 18.7691C42.2801 18.8024 42.8706 18.6666 43.3897 18.3777C43.592 18.2478 43.7557 18.066 43.8638 17.8513C43.9719 17.6366 44.0205 17.3968 44.0045 17.1569V17.1149C44.0125 16.8869 43.9644 16.6605 43.8646 16.4554C43.7647 16.2503 43.6161 16.0728 43.4317 15.9384C43.0514 15.6435 42.4366 15.4961 41.5873 15.4961H37.8079V18.7691H41.6869Z" fill="#F3BA2F"/>
<path d="M51.3247 6.78494H54.5911V21.6331H51.3247V6.78494Z" fill="#F3BA2F"/>
<path d="M59.5337 6.78494H62.5458L69.5076 15.9229V6.78494H72.732V21.6331H69.9521L62.7625 12.1943V21.6331H59.5337V6.78494Z" fill="#F3BA2F"/>
<path d="M82.6221 6.67877H85.6297L91.9923 21.633H88.5821L87.2242 18.3025H80.9457L79.5879 21.633H76.2573L82.6221 6.67877ZM86.0588 15.4187L84.0817 10.602L82.1134 15.4187H86.0588Z" fill="#F3BA2F"/>
<path d="M95.5239 6.78494H98.536L105.493 15.9229V6.78494H108.718V21.6331H105.938L98.7483 12.1943V21.6331H95.5239V6.78494Z" fill="#F3BA2F"/>
<path d="M120.474 21.894C119.433 21.9029 118.401 21.7013 117.44 21.3013C116.535 20.9277 115.714 20.3768 115.026 19.6809C114.337 18.9851 113.795 18.1585 113.43 17.2498C113.046 16.2993 112.852 15.2829 112.858 14.2577V14.2156C112.841 12.1948 113.618 10.2482 115.023 8.79521C115.714 8.08548 116.541 7.5228 117.455 7.14099C118.45 6.72913 119.517 6.52372 120.594 6.53725C121.23 6.5325 121.866 6.58953 122.491 6.70754C123.026 6.80875 123.549 6.96512 124.052 7.17417C124.509 7.36627 124.943 7.60804 125.346 7.89512C125.74 8.17511 126.11 8.48726 126.452 8.82838L124.375 11.2257C123.845 10.7361 123.249 10.3217 122.606 9.99385C121.974 9.69168 121.281 9.54027 120.58 9.55154C119.997 9.54533 119.42 9.66319 118.886 9.8973C118.352 10.1314 117.874 10.4764 117.484 10.9094C117.097 11.3413 116.794 11.8415 116.591 12.3845C116.378 12.9583 116.271 13.566 116.274 14.178V14.2201C116.272 14.8312 116.38 15.4379 116.591 16.0114C116.792 16.5563 117.092 17.0594 117.475 17.4953C117.862 17.9337 118.339 18.2837 118.873 18.5218C119.408 18.7599 119.987 18.8805 120.571 18.8753C121.316 18.8988 122.055 18.7385 122.723 18.4087C123.359 18.062 123.947 17.6338 124.473 17.1348L126.551 19.2358C126.184 19.6342 125.787 20.0038 125.364 20.3415C124.948 20.6705 124.496 20.9517 124.017 21.1797C123.507 21.4199 122.969 21.5974 122.416 21.7082C121.777 21.8364 121.126 21.8986 120.474 21.894Z" fill="#F3BA2F"/>
<path d="M130.406 6.78494H141.581V9.69087H133.62V12.703H140.63V15.6089H133.631V18.7271H141.692V21.6331H130.413L130.406 6.78494Z" fill="#F3BA2F"/>
</g>
<defs>
<clipPath id="clip0_269_2841">
<rect width="141" height="28" fill="white" transform="translate(0.856934)"/>
</clipPath>
</defs>
</svg>
