<svg width="60" height="56" viewBox="0 0 60 56" fill="none" xmlns="http://www.w3.org/2000/svg">
<path d="M55.9875 50.2777H49.4334C48.9279 50.2777 48.5216 49.8714 48.5216 49.3658C48.5216 48.8603 48.9279 48.4539 49.4334 48.4539L55.9875 48.4544C56.7435 48.4544 57.3553 47.8426 57.3553 47.0866V3.19175C57.3553 2.43573 56.7435 1.82394 55.9875 1.82394H4.01199C3.25597 1.82394 2.64417 2.43578 2.64417 3.19175V47.0831C2.64417 47.8391 3.25602 48.4509 4.01199 48.4509H9.34241C9.84792 48.4509 10.2543 48.8573 10.2543 49.3628C10.2543 49.8683 9.84792 50.2747 9.34241 50.2747H4.01199C2.25306 50.2747 0.820307 48.8424 0.820307 47.0831V3.19168C0.820307 1.43275 2.2526 0 4.01199 0H55.9887C57.7476 0 59.1804 1.43229 59.1804 3.19168V47.0831C59.1799 48.846 57.7476 50.2783 55.9882 50.2783L55.9875 50.2777Z" fill="#26619C"/>
<path d="M47.0129 50.2777H40.9035C40.398 50.2777 39.9916 49.8713 39.9916 49.3658C39.9916 48.8603 40.398 48.4539 40.9035 48.4539H47.0129C47.5185 48.4539 47.9248 48.8603 47.9248 49.3658C47.9248 49.8713 47.518 50.2777 47.0129 50.2777Z" fill="#26619C"/>
<path d="M58.2666 9.86386H1.73172C1.22621 9.86386 0.819824 9.45747 0.819824 8.95196C0.819824 8.44645 1.22621 8.04006 1.73172 8.04006H58.2666C58.7721 8.04006 59.1785 8.44645 59.1785 8.95196C59.1785 9.45747 58.7721 9.86386 58.2666 9.86386Z" fill="#26619C"/>
<path d="M53.134 5.84393H30.4513C29.9458 5.84393 29.5394 5.43754 29.5394 4.93203C29.5394 4.42652 29.9458 4.02013 30.4513 4.02013H53.134C53.6395 4.02013 54.0459 4.42652 54.0459 4.93203C54.0459 5.43754 53.6355 5.84393 53.134 5.84393Z" fill="#26619C"/>
<path d="M8.83665 4.93194C8.83665 5.59514 8.29869 6.13262 7.63596 6.13262C6.97276 6.13262 6.43527 5.59512 6.43527 4.93194C6.43527 4.26876 6.97278 3.73125 7.63596 3.73125C8.29871 3.73125 8.83665 4.26876 8.83665 4.93194Z" fill="#26619C"/>
<path d="M13.8632 4.93194C13.8632 5.59514 13.3256 6.13262 12.6625 6.13262C11.9997 6.13262 11.4622 5.59512 11.4622 4.93194C11.4622 4.26876 11.9997 3.73125 12.6625 3.73125C13.3257 3.73125 13.8632 4.26876 13.8632 4.93194Z" fill="#26619C"/>
<path d="M18.0373 3.78315C18.6721 3.97509 19.0308 4.6455 18.8388 5.27992C18.6464 5.91474 17.976 6.27337 17.3417 6.08144C16.7069 5.88905 16.3482 5.21864 16.5406 4.58433C16.7326 3.94951 17.403 3.59087 18.0374 3.78326" fill="#26619C"/>
<path d="M40.7442 22.5501H34.1523C33.6468 22.5501 33.2404 22.1437 33.2404 21.6382V15.0463C33.2404 14.5408 33.6468 14.1344 34.1523 14.1344C34.6578 14.1344 35.0642 14.5408 35.0642 15.0463V20.7227H40.7407C41.2462 20.7227 41.6526 21.1291 41.6526 21.6346C41.6526 22.1397 41.2461 22.5501 40.7442 22.5501Z" fill="#26619C"/>
<path d="M39.0914 55.9997H11.155C9.65417 55.9997 8.431 54.7766 8.431 53.2758L8.43055 16.6992C8.43055 15.1984 9.65372 13.9753 11.1545 13.9753H33.4001C33.7876 13.9753 34.175 14.0591 34.5287 14.2186C34.8288 14.3555 35.0951 14.5416 35.3266 14.7732L41.0184 20.4608C41.25 20.6924 41.4365 20.9623 41.573 21.2587C41.7325 21.6084 41.8163 21.9994 41.8163 22.3874V53.2765C41.8199 54.7804 40.5963 56 39.0919 56L39.0914 55.9997ZM11.155 15.7981C10.6571 15.7981 10.2543 16.2009 10.2543 16.6987V53.2799C10.2543 53.7777 10.6571 54.1805 11.155 54.1805H39.0914C39.5893 54.1805 39.9921 53.7777 39.9921 53.2799V22.3907C39.9921 22.2614 39.9655 22.1326 39.9123 22.0186C39.8668 21.9199 39.806 21.8325 39.7298 21.7528L34.038 16.061C33.9619 15.9848 33.8709 15.924 33.7722 15.8785C33.6582 15.8254 33.5289 15.7988 33.4001 15.7988L11.155 15.7981Z" fill="#26619C"/>
<path d="M29.0073 23.4509H14.531C14.0255 23.4509 13.6191 23.0445 13.6191 22.539C13.6191 22.0335 14.0255 21.6271 14.531 21.6271H29.0073C29.5128 21.6271 29.9192 22.0335 29.9192 22.539C29.9192 23.0445 29.5128 23.4509 29.0073 23.4509Z" fill="#26619C"/>
<path d="M33.727 42.1244H24.3686C23.8631 42.1244 23.4567 41.718 23.4567 41.2125C23.4567 40.707 23.8631 40.3006 24.3686 40.3006H33.7265C34.232 40.3006 34.6384 40.707 34.6384 41.2125C34.6388 41.718 34.2284 42.1244 33.727 42.1244Z" fill="#26619C"/>
<path d="M35.7177 29.6735H24.9767C24.4712 29.6735 24.0648 29.2671 24.0648 28.7616C24.0648 28.2561 24.4712 27.8497 24.9767 27.8497H35.7177C36.2232 27.8497 36.6296 28.2561 36.6296 28.7616C36.6292 29.2671 36.2192 29.6735 35.7177 29.6735Z" fill="#26619C"/>
<path d="M20.2161 29.6735H14.532C14.0265 29.6735 13.6201 29.2671 13.6201 28.7616C13.6201 28.2561 14.0265 27.8497 14.532 27.8497H20.2161C20.7216 27.8497 21.128 28.2561 21.128 28.7616C21.128 29.2671 20.7216 29.6735 20.2161 29.6735Z" fill="#26619C"/>
<path d="M14.5321 35.8972C14.0266 35.8972 13.6202 35.4908 13.6202 34.9853C13.6202 34.4798 14.0266 34.0734 14.5321 34.0734H35.7177C36.2232 34.0734 36.6296 34.4798 36.6296 34.9853C36.6296 35.4904 36.2196 35.8972 35.7182 35.8972H14.5321Z" fill="#26619C"/>
<path d="M19.7143 42.1244H14.5317C14.0261 42.1244 13.6198 41.718 13.6198 41.2125C13.6198 40.707 14.0261 40.3006 14.5317 40.3006H19.7143C20.2198 40.3006 20.6262 40.707 20.6262 41.2125C20.6262 41.718 20.2158 42.1244 19.7143 42.1244Z" fill="#26619C"/>
<path d="M31.3094 48.3481H14.531C14.0255 48.3481 13.6191 47.9417 13.6191 47.4362C13.6191 46.9307 14.0255 46.5243 14.531 46.5243H31.3094C31.8149 46.5243 32.2213 46.9307 32.2213 47.4362C32.2213 47.9417 31.8149 48.3481 31.3094 48.3481Z" fill="#26619C"/>
<path d="M50.645 47.6526H45.7246C45.2191 47.6526 44.8127 47.2462 44.8127 46.7407V27.3867C44.8127 26.8812 45.2191 26.4748 45.7246 26.4748H50.645C51.1505 26.4748 51.5569 26.8812 51.5569 27.3867V46.7407C51.5569 47.2422 51.15 47.6526 50.645 47.6526ZM46.6365 45.8289H49.7331V28.2984H46.6365V45.8289Z" fill="#26619C"/>
<path d="M48.2701 52.8198C47.9246 52.8198 47.6051 52.622 47.4533 52.3107L44.9 47.1398C44.7595 46.8587 44.7784 46.5203 44.9419 46.2545C45.1091 45.9887 45.4015 45.8251 45.7169 45.8251L50.6373 45.8287C50.949 45.8287 51.2374 45.9882 51.4045 46.2468C51.5717 46.509 51.5947 46.8357 51.4654 47.1209L49.0982 52.2882C48.95 52.6072 48.6346 52.8162 48.2814 52.8203C48.2778 52.8198 48.2737 52.8198 48.2701 52.8198ZM47.1834 47.6489L48.2395 49.7841L49.2199 47.6489H47.1834Z" fill="#26619C"/>
<path d="M50.6531 28.2986L45.7291 28.295C45.2236 28.295 44.8172 27.8846 44.8172 27.3831V25.4299C44.8172 24.7424 45.0871 24.0927 45.5732 23.6062C46.0593 23.1201 46.7054 22.8538 47.3929 22.8538H48.9848C49.6723 22.8538 50.322 23.1237 50.8085 23.6098C51.2946 24.0959 51.5609 24.7456 51.5609 25.4336V27.3867C51.5609 27.63 51.4658 27.8616 51.2951 28.0328C51.1284 28.2036 50.8964 28.2986 50.6531 28.2986ZM46.645 26.4712L49.7416 26.4748V25.4336C49.7416 25.2322 49.6619 25.042 49.5213 24.9015C49.3807 24.7573 49.1906 24.6811 48.9892 24.6811L47.401 24.6816C47.1996 24.6816 47.0095 24.7613 46.8689 24.9019C46.7247 25.0425 46.6486 25.2326 46.6486 25.434L46.645 26.4712Z" fill="#26619C"/>
</svg>
