<svg width="20" height="25" viewBox="0 0 20 25" fill="none" xmlns="http://www.w3.org/2000/svg">
<path d="M20 8.35156L19.2734 6.39062L19.7734 5.26562C19.8359 5.11719 19.8047 4.95312 19.6953 4.83594L18.3281 3.45312C17.7266 2.85156 16.8359 2.64062 16.0312 2.92188L15.6484 3.05469L13.5547 0.789062L10.0156 0.765625H9.99219L6.42969 0.796875L4.34375 3.07812L3.96875 2.94531C3.15625 2.65625 2.25781 2.86719 1.65625 3.48438L0.265625 4.89062C0.171875 4.98438 0.148438 5.11719 0.195312 5.23438L0.71875 6.40625L0 8.36719L0.46875 10.1406L2.59375 18.2109C2.83594 19.1406 3.39844 19.9531 4.1875 20.5156C4.1875 20.5156 6.76562 22.3359 9.30469 23.9844C9.53125 24.1328 9.76562 24.2344 10.0156 24.2344C10.2656 24.2344 10.5 24.1328 10.7266 23.9844C13.5859 22.1094 15.8438 20.5078 15.8438 20.5078C16.625 19.9453 17.1875 19.1328 17.4297 18.2031L19.5391 10.1328L20 8.35156Z" fill="#F15A22"/>
<path style="mix-blend-mode:lighten" opacity="0.15" d="M2.69531 18.5547L0 8.53905L0.789062 6.57811L0.242188 5.12498L1.54688 3.79686C1.97656 3.41405 2.82031 3.28123 3.21094 3.5078L5.25 4.67967L7.90625 5.29686L9.97656 4.43748L10.1484 22.2265C10.1172 24.789 10.2812 24.5156 8.39844 23.3047L3.75 20.1875C3.25 19.7109 2.86719 19.1719 2.69531 18.5547Z" fill="url(#paint0_linear_329_483)"/>
<path style="mix-blend-mode:darken" opacity="0.4" d="M15.7969 20.4723L11.8438 23.1755C10.7422 23.777 10.2109 24.3708 10.125 24.0817C10.0547 23.8551 10.1094 23.1911 10.0859 22.1598L10.0391 4.76139C10.0469 4.58952 10.1641 4.30046 10.3672 4.33171L12.3828 4.94108L15.2891 4.48796L17.2109 3.07389C17.4141 2.91764 17.7109 2.93327 17.8984 3.11296L19.6172 4.75358C19.7734 4.91764 19.7812 5.23796 19.6875 5.44108L19.2109 6.32389L20 8.36296L17.2812 18.4723C16.8594 19.7301 16.2656 20.0583 15.7969 20.4723Z" fill="url(#paint1_linear_329_483)"/>
<path d="M10.4685 15.2032C10.3748 15.1642 10.2732 15.1329 10.242 15.1329H10.117H9.99199C9.96074 15.1329 9.85917 15.1642 9.76542 15.2032L8.7498 15.6251C8.65605 15.6642 8.4998 15.7345 8.40605 15.7814L6.8748 16.5782C6.78105 16.6251 6.77324 16.7111 6.85917 16.7736L8.21074 17.7267C8.29667 17.7892 8.42949 17.8907 8.50761 17.9611L9.10917 18.4767C9.1873 18.547 9.3123 18.6564 9.39042 18.7267L9.96855 19.2423C10.0467 19.3126 10.1717 19.3126 10.2498 19.2423L10.8435 18.7267C10.9217 18.6564 11.0467 18.547 11.1248 18.4767L11.7264 17.9532C11.8045 17.8829 11.9373 17.7814 12.0232 17.7189L13.3748 16.7579C13.4607 16.6954 13.4529 16.6095 13.3592 16.5626L11.8279 15.7814C11.7342 15.7345 11.5779 15.6642 11.4842 15.6251L10.4685 15.2032Z" fill="white"/>
<path d="M17.798 8.69976C17.8292 8.5982 17.8292 8.55914 17.8292 8.55914C17.8292 8.45758 17.8214 8.2857 17.8058 8.18414L17.7277 7.95758C17.6808 7.86383 17.6027 7.71539 17.5402 7.62945L16.6574 6.32476C16.6027 6.23883 16.5011 6.10601 16.4308 6.02008L15.2902 4.59039C15.2277 4.51226 15.1652 4.44195 15.1574 4.44976H15.1417C15.1417 4.44976 15.0558 4.46539 14.9542 4.48101L13.212 4.82476C13.1105 4.8482 12.9464 4.87945 12.8449 4.89508L12.8136 4.90289C12.712 4.91851 12.548 4.9107 12.4464 4.87945L10.9855 4.4107C10.8839 4.37945 10.7199 4.33258 10.6261 4.30914C10.6261 4.30914 10.3292 4.23883 10.087 4.24664C9.84485 4.24664 9.54798 4.30914 9.54798 4.30914C9.44641 4.33258 9.28235 4.37945 9.1886 4.4107L7.72766 4.87945C7.6261 4.9107 7.46204 4.91851 7.36048 4.90289L7.32923 4.89508C7.22766 4.87945 7.0636 4.84039 6.96204 4.82476L5.20423 4.49664C5.10266 4.4732 5.01673 4.46539 5.01673 4.46539H5.0011C4.99329 4.46539 4.93079 4.52789 4.86829 4.60601L3.72766 6.0357C3.66516 6.11383 3.5636 6.25445 3.5011 6.34039L2.61829 7.64508C2.5636 7.73101 2.47766 7.87945 2.43079 7.9732L2.35266 8.19976C2.33704 8.30133 2.32141 8.4732 2.32923 8.57476C2.32923 8.57476 2.32923 8.60601 2.36048 8.71539C2.41516 8.90289 2.54798 9.07476 2.54798 9.07476C2.61048 9.15289 2.72766 9.2857 2.79798 9.35601L5.38391 12.106C5.45423 12.1841 5.47766 12.3248 5.4386 12.4185L4.89954 13.692C4.86048 13.7857 4.85266 13.942 4.89173 14.0435L5.04016 14.442C5.16516 14.7779 5.3761 15.0748 5.65735 15.3013L6.18079 15.7232C6.25891 15.7857 6.39954 15.8091 6.49329 15.7623L8.14954 14.9732C8.24329 14.9263 8.38391 14.8326 8.46204 14.7623L9.64954 13.692C9.82141 13.5357 9.82923 13.2701 9.67298 13.0982L7.18079 11.4185C7.09485 11.3638 7.0636 11.2388 7.11048 11.1451L8.20423 9.08258C8.2511 8.98883 8.25891 8.84039 8.21985 8.74664L8.08704 8.44195C8.04798 8.3482 7.93079 8.23883 7.83704 8.19976L4.6261 6.99664C4.53235 6.95758 4.53235 6.91851 4.63391 6.9107L6.70423 6.71539C6.80579 6.70758 6.96985 6.7232 7.07141 6.74664L8.91516 7.26226C9.01673 7.29351 9.07923 7.39508 9.0636 7.49664L8.42298 11.0045C8.40735 11.106 8.40735 11.2466 8.43079 11.3248C8.45423 11.4029 8.55579 11.4732 8.65735 11.4966L9.9386 11.7701C10.0402 11.7935 10.2042 11.7935 10.3058 11.7701L11.5011 11.4966C11.6027 11.4732 11.7042 11.3951 11.7277 11.3248C11.7511 11.2545 11.7589 11.106 11.7355 11.0045L11.1027 7.49664C11.087 7.39508 11.1495 7.2857 11.2511 7.26226L13.0949 6.74664C13.1964 6.71539 13.3605 6.70758 13.462 6.71539L15.5324 6.9107C15.6339 6.91851 15.6417 6.95758 15.5402 6.99664L12.3292 8.21539C12.2355 8.25445 12.1183 8.35601 12.0792 8.45758L11.9464 8.76226C11.9074 8.85601 11.9074 9.01226 11.962 9.0982L13.0636 11.1607C13.1105 11.2545 13.0792 11.3716 12.9933 11.4341L10.5011 13.1216C10.337 13.2857 10.3527 13.5591 10.5245 13.7154L11.712 14.7857C11.7902 14.856 11.9308 14.9498 12.0245 14.9888L13.6886 15.7779C13.7824 15.8248 13.923 15.8013 14.0011 15.7388L14.5245 15.3091C14.8058 15.0826 15.0167 14.7857 15.1339 14.4498L15.2824 14.0513C15.3214 13.9576 15.3136 13.7935 15.2745 13.6998L14.7355 12.4263C14.6964 12.3326 14.7199 12.192 14.7902 12.1138L17.3761 9.36383C17.4464 9.2857 17.5558 9.1607 17.6261 9.08258C17.6105 9.05914 17.7511 8.88726 17.798 8.69976Z" fill="white"/>
<defs>
<linearGradient id="paint0_linear_329_483" x1="0" y1="13.8007" x2="10.1583" y2="13.8007" gradientUnits="userSpaceOnUse">
<stop stop-color="white"/>
<stop offset="0.1413" stop-color="white" stop-opacity="0.9576"/>
<stop offset="1" stop-color="white" stop-opacity="0.7"/>
</linearGradient>
<linearGradient id="paint1_linear_329_483" x1="10.0352" y1="13.5581" x2="20" y2="13.5581" gradientUnits="userSpaceOnUse">
<stop stop-color="#F1F1F2"/>
<stop offset="0.0919144" stop-color="#E4E5E6"/>
<stop offset="0.2357" stop-color="#D9DADB"/>
<stop offset="0.438" stop-color="#D2D4D5"/>
<stop offset="1" stop-color="#D0D2D3"/>
</linearGradient>
</defs>
</svg>
