<svg width="141" height="28" viewBox="0 0 141 28" fill="none" xmlns="http://www.w3.org/2000/svg">
<g clip-path="url(#clip0_269_2856)">
<path d="M9.05621 13.8947C9.02501 14.4356 9.21085 14.9668 9.5729 15.3715C9.93496 15.7762 10.4436 16.0213 10.9871 16.0529H11.0991C11.4994 16.0524 11.8908 15.9354 12.2249 15.7161C12.5591 15.4968 12.8215 15.1849 12.9797 14.8189C13.1378 14.453 13.1849 14.0489 13.115 13.6566C13.0451 13.2643 12.8613 12.901 12.5864 12.6115C12.3114 12.3219 11.9573 12.1189 11.5677 12.0273C11.1782 11.9358 10.7702 11.9598 10.3942 12.0964C10.0182 12.233 9.69058 12.4762 9.45181 12.7959C9.21305 13.1157 9.07358 13.498 9.05061 13.8958L9.05621 13.8947Z" fill="#0033AD"/>
<path d="M1.41327 13.3774C1.2826 13.3701 1.1527 13.4016 1.03997 13.4677C0.92725 13.5339 0.836768 13.6319 0.779962 13.7492C0.723156 13.8666 0.702575 13.9981 0.72082 14.1271C0.739066 14.256 0.795319 14.3768 0.88247 14.4739C0.969621 14.5711 1.08376 14.6404 1.21046 14.673C1.33716 14.7057 1.47074 14.7002 1.59431 14.6573C1.71788 14.6144 1.8259 14.536 1.90471 14.432C1.98353 14.328 2.0296 14.2031 2.03711 14.073C2.04226 13.9865 2.03018 13.8999 2.00158 13.818C1.97298 13.7362 1.92841 13.6608 1.87044 13.5962C1.81247 13.5315 1.74224 13.4789 1.66378 13.4414C1.58533 13.4038 1.50019 13.3821 1.41327 13.3774Z" fill="#0033AD"/>
<path d="M8.92629 2.05455C9.04267 1.99506 9.13877 1.90264 9.20249 1.78891C9.26621 1.67518 9.2947 1.54523 9.28438 1.41542C9.27406 1.28561 9.22539 1.16174 9.14449 1.0594C9.0636 0.957063 8.95409 0.880832 8.82976 0.840304C8.70543 0.799776 8.57184 0.796763 8.44579 0.831644C8.31974 0.866525 8.20688 0.937742 8.12141 1.03633C8.03594 1.13491 7.98168 1.25646 7.96547 1.38568C7.94925 1.51489 7.9718 1.64599 8.03028 1.76247C8.06959 1.84044 8.12402 1.90989 8.19042 1.96683C8.25682 2.02376 8.33389 2.06706 8.41718 2.09421C8.50048 2.12136 8.58834 2.13183 8.67572 2.12502C8.7631 2.11822 8.84826 2.09426 8.92629 2.05455Z" fill="#0033AD"/>
<path d="M11.0061 5.66421C11.1869 5.57347 11.3365 5.43142 11.4362 5.25603C11.5358 5.08064 11.581 4.87978 11.566 4.67884C11.5509 4.47791 11.4764 4.28592 11.3517 4.12715C11.2271 3.96838 11.058 3.84996 10.8657 3.78685C10.6735 3.72374 10.4667 3.71878 10.2717 3.7726C10.0766 3.82642 9.90191 3.9366 9.76974 4.08921C9.63756 4.24182 9.55381 4.43001 9.52908 4.62999C9.50434 4.82997 9.53973 5.03276 9.63077 5.21273C9.69126 5.33229 9.77482 5.43882 9.87669 5.52623C9.97856 5.61364 10.0967 5.68021 10.2245 5.72213C10.3522 5.76406 10.487 5.78053 10.6211 5.77059C10.7552 5.76065 10.8861 5.7245 11.0061 5.66421Z" fill="#0033AD"/>
<path d="M4.00721 8.14683C4.14662 8.23808 4.31009 8.28612 4.47694 8.28487C4.64379 8.28362 4.80651 8.23314 4.94453 8.13982C5.08255 8.04649 5.18965 7.91452 5.25228 7.76059C5.31492 7.60666 5.33028 7.4377 5.29641 7.27508C5.26254 7.11246 5.18097 6.9635 5.06202 6.84704C4.94307 6.73057 4.79209 6.65185 4.62817 6.62082C4.46426 6.58979 4.29478 6.60785 4.14118 6.67272C3.98758 6.73758 3.85677 6.84634 3.76529 6.98523C3.64277 7.17125 3.59943 7.39806 3.64479 7.61585C3.69015 7.83365 3.8205 8.02462 4.00721 8.14683Z" fill="#0033AD"/>
<path d="M5.25378 13.0062C5.05168 12.9948 4.85074 13.0434 4.67635 13.1457C4.50196 13.248 4.36196 13.3994 4.27403 13.5809C4.18611 13.7624 4.15421 13.9657 4.18238 14.1652C4.21054 14.3647 4.2975 14.5515 4.43226 14.7018C4.56702 14.8521 4.74354 14.9593 4.9395 15.0098C5.13546 15.0603 5.34206 15.0519 5.53319 14.9856C5.72432 14.9192 5.8914 14.798 6.01331 14.6371C6.13522 14.4763 6.20649 14.2831 6.21811 14.0819C6.2334 13.812 6.14042 13.5471 5.95961 13.3454C5.77879 13.1437 5.52493 13.0217 5.25378 13.0062Z" fill="#0033AD"/>
<path d="M4.11921 19.8565C3.97037 19.9314 3.84717 20.0485 3.76519 20.1931C3.68321 20.3376 3.64613 20.5031 3.65863 20.6686C3.67113 20.8341 3.73265 20.9923 3.83543 21.123C3.9382 21.2537 4.0776 21.3512 4.23602 21.4031C4.39443 21.455 4.56474 21.4589 4.72542 21.4145C4.8861 21.37 5.02994 21.2792 5.13875 21.1534C5.24756 21.0276 5.31646 20.8725 5.33673 20.7078C5.35701 20.543 5.32775 20.3759 5.25266 20.2277C5.20276 20.1292 5.13386 20.0415 5.04988 19.9696C4.9659 19.8976 4.86849 19.8428 4.76323 19.8083C4.65796 19.7739 4.54691 19.7604 4.4364 19.7686C4.3259 19.7769 4.21811 19.8068 4.11921 19.8565Z" fill="#0033AD"/>
<path d="M8.0986 10.9003C8.29795 11.0304 8.53155 11.0987 8.76988 11.0965C9.00821 11.0944 9.24056 11.022 9.43755 10.8885C9.63454 10.755 9.78733 10.5663 9.87659 10.3463C9.96585 10.1264 9.98759 9.88501 9.93904 9.65276C9.89049 9.42051 9.77384 9.2078 9.60385 9.04153C9.43385 8.87526 9.21814 8.76289 8.98398 8.71864C8.74983 8.67439 8.50775 8.70023 8.28835 8.79291C8.06896 8.88559 7.8821 9.04094 7.7514 9.23932C7.66445 9.37102 7.60446 9.5185 7.57485 9.67331C7.54525 9.82812 7.54661 9.98723 7.57886 10.1415C7.61111 10.2958 7.67361 10.4422 7.7628 10.5725C7.85198 10.7027 7.9661 10.8141 8.0986 10.9003Z" fill="#0033AD"/>
<path d="M20.7233 5.58395C20.8931 5.69414 21.0918 5.75178 21.2944 5.74957C21.4971 5.74737 21.6945 5.68541 21.8618 5.57154C22.029 5.45767 22.1586 5.297 22.2342 5.10984C22.3097 4.92268 22.3278 4.71742 22.2862 4.52003C22.2445 4.32263 22.145 4.14195 22.0003 4.00083C21.8555 3.85971 21.6719 3.76447 21.4727 3.72717C21.2736 3.68987 21.0678 3.71218 20.8814 3.79127C20.695 3.87036 20.5363 4.00269 20.4254 4.17152C20.3516 4.28366 20.3007 4.40921 20.2758 4.54096C20.2508 4.67271 20.2522 4.80807 20.2798 4.93928C20.3075 5.0705 20.3609 5.19498 20.437 5.30561C20.5131 5.41623 20.6104 5.51082 20.7233 5.58395Z" fill="#0033AD"/>
<path d="M22.8245 1.98543C22.9342 2.05701 23.0628 2.09458 23.1939 2.09341C23.3251 2.09224 23.453 2.05236 23.5614 1.97884C23.6698 1.90531 23.7538 1.80143 23.8029 1.68034C23.8519 1.55926 23.8638 1.42641 23.837 1.2986C23.8102 1.17079 23.7459 1.05378 23.6523 0.962348C23.5586 0.870921 23.4398 0.809196 23.3109 0.784982C23.182 0.760769 23.0488 0.775155 22.9281 0.826321C22.8074 0.877486 22.7047 0.963132 22.633 1.07242C22.5368 1.21881 22.503 1.39718 22.5389 1.56837C22.5748 1.73956 22.6775 1.88956 22.8245 1.98543Z" fill="#0033AD"/>
<path d="M20.8846 11.9527C20.6158 11.9373 20.3466 11.9748 20.0924 12.063C19.8381 12.1512 19.6038 12.2883 19.4029 12.4666C18.997 12.8267 18.7514 13.3326 18.7202 13.8729C18.689 14.4132 18.8748 14.9438 19.2365 15.3478C19.5983 15.7518 20.1066 15.9962 20.6494 16.0272C20.6886 16.0272 20.7289 16.0272 20.7681 16.0272C21.1636 16.027 21.5505 15.913 21.8823 15.6988C22.2141 15.4847 22.4766 15.1795 22.6381 14.8203C22.7996 14.461 22.8532 14.0628 22.7924 13.6739C22.7317 13.285 22.5593 12.9218 22.2958 12.6283C22.1174 12.428 21.9008 12.2652 21.6585 12.1492C21.4162 12.0332 21.1531 11.9664 20.8846 11.9527Z" fill="#0033AD"/>
<path d="M11.6793 10.7588C11.8494 11.0971 12.1111 11.3815 12.4348 11.5798C12.7585 11.7781 13.1315 11.8826 13.5116 11.8814C13.8621 11.8814 14.2067 11.7921 14.5126 11.6219C14.8185 11.4517 15.0755 11.2063 15.2591 10.9092C15.4426 10.612 15.5466 10.273 15.561 9.92443C15.5755 9.57589 15.5 9.22949 15.3417 8.91826C15.1704 8.58146 14.9082 8.29878 14.5846 8.10189C14.261 7.905 13.8886 7.80168 13.5094 7.80348C13.16 7.80407 12.8165 7.89351 12.5116 8.06329C12.2067 8.23308 11.9504 8.47759 11.7671 8.77363C11.5838 9.06967 11.4795 9.40742 11.4641 9.75485C11.4487 10.1023 11.5228 10.4478 11.6793 10.7588Z" fill="#0033AD"/>
<path d="M27.7514 8.1446C27.9003 8.06983 28.0235 7.95281 28.1056 7.80833C28.1877 7.66385 28.2249 7.4984 28.2125 7.33289C28.2001 7.16738 28.1387 7.00923 28.0361 6.87844C27.9334 6.74764 27.7941 6.65007 27.6358 6.59805C27.4774 6.54603 27.3071 6.54191 27.1464 6.58619C26.9857 6.63047 26.8418 6.72118 26.7329 6.84684C26.624 6.97251 26.5549 7.12749 26.5344 7.29221C26.514 7.45693 26.543 7.62398 26.618 7.77227C26.7187 7.97115 26.8947 8.12208 27.1073 8.19189C27.3198 8.26171 27.5515 8.2447 27.7514 8.1446Z" fill="#0033AD"/>
<path d="M22.5534 8.79452C22.3406 8.90124 22.1643 9.06839 22.0468 9.27483C21.9294 9.48128 21.8761 9.71775 21.8937 9.95434C21.9113 10.1909 21.9989 10.417 22.1456 10.604C22.2923 10.791 22.4914 10.9305 22.7178 11.0049C22.9441 11.0792 23.1875 11.0851 23.4172 11.0218C23.6469 10.9585 23.8526 10.8288 24.0082 10.6491C24.1639 10.4694 24.2625 10.2479 24.2916 10.0124C24.3207 9.77693 24.2791 9.53816 24.1718 9.32627C24.1008 9.18549 24.0025 9.06003 23.8827 8.95708C23.7628 8.85414 23.6238 8.77573 23.4734 8.72634C23.3231 8.67695 23.1645 8.65755 23.0066 8.66925C22.8487 8.68095 22.6947 8.72352 22.5534 8.79452Z" fill="#0033AD"/>
<path d="M15.858 1.67775C16.0246 1.68719 16.1902 1.64725 16.334 1.56298C16.4777 1.47872 16.5931 1.3539 16.6656 1.20434C16.7381 1.05477 16.7644 0.887174 16.7411 0.722741C16.7179 0.558308 16.6462 0.404429 16.535 0.28057C16.4239 0.156711 16.2784 0.0684362 16.1169 0.026913C15.9553 -0.0146103 15.7851 -0.00751673 15.6276 0.0472963C15.4701 0.102109 15.3325 0.202179 15.2322 0.334847C15.1318 0.467515 15.0733 0.62682 15.0639 0.792612C15.0514 1.01478 15.128 1.23281 15.2769 1.39878C15.4258 1.56476 15.6348 1.6651 15.858 1.67775Z" fill="#0033AD"/>
<path d="M15.8491 6.9607C16.087 6.97398 16.3235 6.91676 16.5287 6.79628C16.734 6.67579 16.8987 6.49745 17.0022 6.28379C17.1056 6.07013 17.1431 5.83075 17.1099 5.59589C17.0767 5.36104 16.9743 5.14125 16.8156 4.96431C16.6569 4.78738 16.4491 4.66123 16.2184 4.60182C15.9877 4.54241 15.7445 4.55239 15.5195 4.63052C15.2946 4.70865 15.0979 4.8514 14.9544 5.04075C14.8109 5.2301 14.727 5.45753 14.7134 5.69431C14.6953 6.01213 14.8048 6.32406 15.0178 6.56154C15.2308 6.79901 15.5298 6.94259 15.8491 6.9607Z" fill="#0033AD"/>
<path d="M9.31941 19.2055C9.53226 19.0987 9.70851 18.9314 9.82586 18.7249C9.94321 18.5184 9.99639 18.2819 9.97867 18.0453C9.96096 17.8087 9.87315 17.5826 9.72635 17.3957C9.57954 17.2087 9.38034 17.0693 9.15393 16.9951C8.92753 16.9209 8.68409 16.9151 8.45441 16.9786C8.22473 17.0421 8.01912 17.172 7.86359 17.3518C7.70807 17.5316 7.60961 17.7533 7.58066 17.9888C7.55172 18.2243 7.5936 18.463 7.701 18.6748C7.84497 18.9588 8.09633 19.1742 8.39982 19.2737C8.70332 19.3732 9.03409 19.3487 9.31941 19.2055Z" fill="#0033AD"/>
<path d="M16.6275 8.71091C16.3775 9.09057 16.2619 9.54235 16.299 9.99476C16.336 10.4472 16.5236 10.8744 16.832 11.2087C17.1404 11.5431 17.552 11.7655 18.0018 11.8408C18.4515 11.9161 18.9136 11.84 19.3149 11.6245C19.7163 11.409 20.034 11.0664 20.2177 10.651C20.4014 10.2355 20.4407 9.77097 20.3294 9.33081C20.218 8.89065 19.9623 8.50003 19.6028 8.22077C19.2433 7.94151 18.8005 7.78957 18.3444 7.78899C18.0039 7.78875 17.6686 7.8729 17.3688 8.03385C17.0691 8.1948 16.8143 8.42748 16.6275 8.71091Z" fill="#0033AD"/>
<path d="M20.1913 17.2423C20.0271 16.9182 19.779 16.6436 19.4726 16.4468C19.1661 16.25 18.8125 16.1381 18.4481 16.1227C18.0838 16.1073 17.7219 16.189 17.3998 16.3593C17.0777 16.5295 16.8071 16.7823 16.6159 17.0914C16.4247 17.4005 16.3198 17.7548 16.3121 18.1177C16.3044 18.4806 16.3941 18.839 16.5719 19.1559C16.7498 19.4728 17.0094 19.7367 17.3239 19.9204C17.6385 20.1041 17.9965 20.201 18.3612 20.201C18.6821 20.1988 18.998 20.1225 19.2841 19.978C19.7681 19.7342 20.1353 19.3094 20.3054 18.7967C20.4754 18.2839 20.4344 17.725 20.1913 17.2423Z" fill="#0033AD"/>
<path d="M23.7731 17.0997C23.5739 16.9695 23.3403 16.901 23.102 16.9029C22.8636 16.9049 22.6312 16.9771 22.4341 17.1105C22.237 17.2439 22.0841 17.4325 21.9947 17.6524C21.9052 17.8723 21.8833 18.1137 21.9317 18.346C21.9801 18.5783 22.0967 18.7911 22.2666 18.9574C22.4365 19.1238 22.6521 19.2363 22.8863 19.2807C23.1204 19.3251 23.3625 19.2994 23.582 19.2068C23.8014 19.1143 23.9884 18.959 24.1192 18.7607C24.294 18.4946 24.3558 18.1703 24.2909 17.859C24.226 17.5477 24.0398 17.2746 23.7731 17.0997Z" fill="#0033AD"/>
<path d="M27.6976 14.0351C27.709 13.834 27.6603 13.634 27.5575 13.4604C27.4547 13.2868 27.3026 13.1475 27.1202 13.0599C26.9379 12.9724 26.7336 12.9407 26.5331 12.9687C26.3327 12.9967 26.1451 13.0833 25.9941 13.2174C25.843 13.3516 25.7353 13.5273 25.6846 13.7223C25.6338 13.9173 25.6423 14.123 25.709 14.3132C25.7756 14.5035 25.8974 14.6698 26.059 14.7911C26.2206 14.9124 26.4147 14.9834 26.6168 14.9949C26.888 15.0102 27.1541 14.9176 27.3568 14.7377C27.5594 14.5577 27.682 14.305 27.6976 14.0351Z" fill="#0033AD"/>
<path d="M30.5335 13.3094C30.4026 13.3019 30.2724 13.3332 30.1593 13.3994C30.0463 13.4655 29.9555 13.5636 29.8984 13.6811C29.8413 13.7986 29.8206 13.9303 29.8387 14.0596C29.8569 14.1889 29.9131 14.3099 30.0004 14.4073C30.0876 14.5048 30.202 14.5743 30.3289 14.6071C30.4558 14.6398 30.5897 14.6344 30.7135 14.5915C30.8374 14.5485 30.9456 14.47 31.0246 14.3658C31.1036 14.2616 31.1498 14.1364 31.1573 14.0061C31.1671 13.8315 31.107 13.6601 30.99 13.5295C30.8731 13.3989 30.7089 13.3197 30.5335 13.3094Z" fill="#0033AD"/>
<path d="M27.8634 19.8532C27.7239 19.7622 27.5604 19.7145 27.3936 19.716C27.2269 19.7175 27.0643 19.7682 26.9265 19.8616C26.7886 19.9551 26.6818 20.0871 26.6193 20.241C26.5569 20.395 26.5416 20.5639 26.5756 20.7264C26.6096 20.8889 26.6912 21.0377 26.8102 21.1541C26.9291 21.2704 27.08 21.3491 27.2439 21.3801C27.4077 21.411 27.5771 21.393 27.7306 21.3282C27.8842 21.2633 28.0149 21.1547 28.1064 21.0159C28.1672 20.9237 28.2092 20.8204 28.2298 20.7121C28.2505 20.6037 28.2496 20.4924 28.227 20.3844C28.2044 20.2764 28.1607 20.1739 28.0983 20.0828C28.0359 19.9916 27.9561 19.9136 27.8634 19.8532Z" fill="#0033AD"/>
<path d="M9.04725 26.0146C8.93762 25.943 8.80913 25.9053 8.67801 25.9064C8.54689 25.9075 8.41904 25.9472 8.31061 26.0206C8.20219 26.094 8.11806 26.1978 8.06887 26.3188C8.01968 26.4397 8.00763 26.5725 8.03425 26.7003C8.06087 26.8281 8.12496 26.9452 8.21842 27.0367C8.31187 27.1283 8.4305 27.1902 8.5593 27.2146C8.68811 27.2391 8.8213 27.2249 8.94204 27.174C9.06279 27.1232 9.16566 27.0378 9.23765 26.9287C9.28548 26.8562 9.31849 26.7751 9.3348 26.6899C9.35112 26.6048 9.35041 26.5173 9.33273 26.4324C9.31505 26.3475 9.28074 26.2669 9.23175 26.1952C9.18277 26.1235 9.12007 26.0621 9.04725 26.0146Z" fill="#0033AD"/>
<path d="M22.9443 25.9455C22.8272 26.0042 22.7302 26.0962 22.6656 26.2098C22.6011 26.3234 22.5718 26.4536 22.5815 26.5837C22.5913 26.7139 22.6396 26.8383 22.7203 26.9412C22.8011 27.044 22.9107 27.1207 23.0352 27.1616C23.1598 27.2024 23.2937 27.2056 23.4201 27.1707C23.5464 27.1358 23.6596 27.0644 23.7452 26.9654C23.8307 26.8665 23.8849 26.7446 23.9009 26.615C23.9168 26.4854 23.8938 26.3541 23.8347 26.2375C23.7956 26.1601 23.7416 26.091 23.6756 26.0344C23.6097 25.9778 23.5331 25.9347 23.4504 25.9076C23.3677 25.8804 23.2804 25.8698 23.1936 25.8763C23.1067 25.8828 23.022 25.9063 22.9443 25.9455Z" fill="#0033AD"/>
<path d="M15.2431 19.2857C15.4931 18.906 15.6087 18.4542 15.5716 18.0018C15.5345 17.5493 15.3469 17.1221 15.0384 16.7877C14.7299 16.4534 14.3182 16.231 13.8684 16.1558C13.4187 16.0805 12.9565 16.1568 12.5552 16.3724C12.1538 16.5881 11.8362 16.9308 11.6526 17.3463C11.469 17.7619 11.4299 18.2265 11.5414 18.6667C11.653 19.1068 11.9089 19.4974 12.2686 19.7765C12.6283 20.0556 13.0712 20.2073 13.5273 20.2077C13.8679 20.2088 14.2034 20.1251 14.5031 19.964C14.8028 19.803 15.0572 19.5698 15.2431 19.2857Z" fill="#0033AD"/>
<path d="M11.1473 22.4172C10.9779 22.3069 10.7794 22.249 10.577 22.251C10.3746 22.2529 10.1773 22.3145 10.0101 22.428C9.84283 22.5416 9.71317 22.7019 9.63746 22.8887C9.56175 23.0756 9.54339 23.2806 9.58471 23.4778C9.62604 23.6751 9.72518 23.8557 9.86961 23.9968C10.014 24.138 10.1973 24.2334 10.3962 24.2709C10.595 24.3084 10.8006 24.2864 10.987 24.2077C11.1733 24.1289 11.332 23.997 11.4429 23.8285C11.5916 23.6023 11.644 23.3265 11.5885 23.0619C11.5331 22.7973 11.3744 22.5654 11.1473 22.4172Z" fill="#0033AD"/>
<path d="M15.9263 26.3223C15.7598 26.3128 15.5942 26.3528 15.4505 26.437C15.3068 26.5212 15.1914 26.646 15.1189 26.7955C15.0464 26.945 15.0201 27.1125 15.0433 27.2769C15.0664 27.4413 15.138 27.5952 15.249 27.719C15.36 27.8429 15.5055 27.9313 15.6669 27.9729C15.8284 28.0146 15.9986 28.0076 16.1561 27.953C16.3136 27.8983 16.4512 27.7984 16.5517 27.6659C16.6521 27.5334 16.7109 27.3742 16.7204 27.2085C16.7268 27.0984 16.7113 26.9881 16.6748 26.884C16.6383 26.7799 16.5816 26.6839 16.5079 26.6016C16.4341 26.5193 16.3448 26.4523 16.245 26.4043C16.1453 26.3564 16.037 26.3285 15.9263 26.3223Z" fill="#0033AD"/>
<path d="M15.9353 21.0404C15.6972 21.026 15.4601 21.0823 15.2542 21.2021C15.0482 21.3219 14.8826 21.4998 14.7783 21.7134C14.674 21.9269 14.6358 22.1665 14.6684 22.4017C14.701 22.6369 14.803 22.8572 14.9615 23.0347C15.12 23.2121 15.3279 23.3388 15.5587 23.3986C15.7896 23.4584 16.0331 23.4486 16.2584 23.3705C16.4837 23.2925 16.6807 23.1496 16.8243 22.96C16.968 22.7705 17.0519 22.5427 17.0654 22.3057C17.0838 21.9888 16.9751 21.6776 16.7632 21.4404C16.5514 21.2032 16.2536 21.0594 15.9353 21.0404Z" fill="#0033AD"/>
<path d="M20.8645 22.3358C20.6836 22.4271 20.5341 22.5698 20.4347 22.7458C20.3354 22.9217 20.2907 23.1231 20.3064 23.3243C20.3221 23.5256 20.3974 23.7177 20.5229 23.8763C20.6483 24.0349 20.8182 24.1529 21.011 24.2154C21.2038 24.2778 21.411 24.282 21.6062 24.2272C21.8013 24.1725 21.9758 24.0613 22.1075 23.9078C22.2392 23.7543 22.3222 23.5654 22.3459 23.3649C22.3697 23.1645 22.3331 22.9615 22.241 22.7817C22.1801 22.6624 22.0962 22.5562 21.994 22.4691C21.8919 22.3821 21.7735 22.316 21.6456 22.2746C21.5178 22.2332 21.383 22.2173 21.2489 22.2278C21.1149 22.2383 20.9842 22.275 20.8645 22.3358Z" fill="#0033AD"/>
<path d="M43.4819 9.18024C45.4666 9.18024 46.8565 10.266 46.8565 12.2816H49.456C49.456 8.74547 46.8363 7.04208 43.4427 7.04208C39.2741 7.04208 36.8526 9.29506 36.8526 14.0563C36.8526 18.9357 39.2741 21.0694 43.4427 21.0694C46.8767 21.0694 49.456 19.4106 49.456 15.8734H46.9551C46.9551 17.8488 45.5853 18.9357 43.483 18.9357C40.7233 18.9357 39.451 17.414 39.451 14.2536V13.859C39.4533 10.7599 40.7424 9.18024 43.4819 9.18024Z" fill="#0033AD"/>
<path d="M56.3295 7.28288L51.0297 20.8364H53.6505L54.7414 17.8923H60.9697L62.0897 20.8364H64.8293L59.526 7.28288H56.3295ZM55.5355 15.7552L56.9254 12.0397C57.2031 11.3095 57.6993 9.72871 57.799 9.45224H57.8975C57.9972 9.72871 58.4934 11.3284 58.7712 12.0397L60.16 15.7541L55.5355 15.7552Z" fill="#0033AD"/>
<path d="M79.0019 11.392C79.0019 8.88371 77.5526 7.28288 74.5554 7.28288H67.3695V20.8364H69.9108V15.5969H74.1377L76.7137 20.8364H79.4924L76.5804 15.2056C78.1876 14.5736 79.0019 13.2302 79.0019 11.392ZM74.3561 13.4666H69.9108V9.43664H74.3561C75.7259 9.43664 76.4404 10.1679 76.4404 11.392C76.4404 12.6773 75.6665 13.4666 74.3561 13.4666Z" fill="#0033AD"/>
<path d="M87.9149 7.28288H82.4739V20.8364H87.9127C92.0209 20.8364 94.5207 18.7027 94.5207 14.0596C94.5207 9.41657 92.0231 7.28288 87.9149 7.28288ZM91.9245 14.257C91.9044 17.2212 90.4954 18.6826 87.9149 18.6826H85.0174V9.43664H87.9149C90.4909 9.43664 91.9245 10.8992 91.9245 13.8623V14.257Z" fill="#0033AD"/>
<path d="M101.178 7.28288L95.8759 20.8364H98.4956L99.5876 17.8923H105.82L106.932 20.8364H109.671L104.371 7.28288H101.178ZM100.384 15.7552L101.772 12.0397C102.049 11.3095 102.546 9.72871 102.645 9.45224H102.746C102.845 9.72871 103.342 11.3284 103.62 12.0397L105.008 15.7541L100.384 15.7552Z" fill="#0033AD"/>
<path d="M121.287 15.3439C121.287 15.6003 121.326 16.2914 121.326 16.4107L121.227 16.4497C121.168 16.3717 120.77 15.6794 120.555 15.3639L114.641 7.28288H112.216V20.8364H114.657V12.7163C114.657 12.3819 114.617 11.7286 114.617 11.6294L114.717 11.5703C114.776 11.6495 115.074 12.2225 115.389 12.6773L121.344 20.8364H123.725V7.28288H121.284V15.3439H121.287Z" fill="#0033AD"/>
<path d="M133.846 7.04654C129.579 7.04654 126.999 9.2984 126.999 14.0596C126.999 18.8209 129.575 21.0727 133.846 21.0727C138.118 21.0727 140.714 18.8209 140.714 14.0596C140.714 9.2984 138.114 7.04654 133.846 7.04654ZM138.114 14.277C138.114 17.3784 136.625 18.939 133.846 18.939C131.088 18.939 129.599 17.3784 129.599 14.277V13.8623C129.599 10.7599 131.108 9.18024 133.846 9.18024C136.606 9.18024 138.114 10.7599 138.114 13.8623V14.277Z" fill="#0033AD"/>
</g>
<defs>
<clipPath id="clip0_269_2856">
<rect width="140" height="28" fill="white" transform="translate(0.714355)"/>
</clipPath>
</defs>
</svg>
