<svg width="20" height="21" viewBox="0 0 20 21" fill="none" xmlns="http://www.w3.org/2000/svg">
<path d="M10 0.5C15.5228 0.5 20 4.97722 20 10.5C20 16.0228 15.5228 20.5 10 20.5C4.47722 20.5 0 16.0228 0 10.5C0 4.97722 4.47722 0.5 10 0.5Z" fill="#0052FF"/>
<path d="M10.0047 14.0141C8.06105 14.0141 6.49055 12.4393 6.49055 10.5C6.49055 8.56074 8.06539 6.98591 10.0047 6.98591C11.7443 6.98591 13.189 8.25272 13.4667 9.91432H17.0068C16.7075 6.30478 13.6879 3.46747 10.0003 3.46747C6.11745 3.46747 2.96777 6.61714 2.96777 10.5C2.96777 14.3829 6.11745 17.5325 10.0003 17.5325C13.6879 17.5325 16.7075 14.6952 17.0068 11.0857H13.4624C13.1847 12.7473 11.7443 14.0141 10.0047 14.0141Z" fill="white"/>
</svg>
