<svg width="12" height="8" viewBox="0 0 12 8" fill="none" xmlns="http://www.w3.org/2000/svg">
<g clip-path="url(#clip0_269_4088)">
<path d="M2.47955e-05 0.648224C2.47955e-05 0.462438 0.0759115 0.285475 0.208409 0.162497C0.340903 0.0395072 0.517334 -0.0179373 0.69279 0.00492482C0.868395 0.0277866 1.02609 0.128637 1.12608 0.281871L4.94246 6.11593H4.94232C5.18156 6.48375 5.57807 6.70367 6.00216 6.70367C6.42607 6.70367 6.82273 6.48374 7.06185 6.11593L10.8782 0.281871C11.004 0.0940585 11.215 -0.00997674 11.4328 0.00868856C11.6509 0.0272094 11.8431 0.165538 11.9383 0.372304C12.0336 0.579071 12.0176 0.823324 11.8963 1.01446L8.07992 6.84852C7.61067 7.56909 6.83322 8 6.00214 8C5.1711 8 4.39347 7.56909 3.92422 6.84852L0.107841 1.01446H0.10798C0.0375996 0.906515 0 0.778896 0 0.648239L2.47955e-05 0.648224Z" fill="#26619C"/>
</g>
<defs>
<clipPath id="clip0_269_4088">
<rect width="12" height="8" fill="white"/>
</clipPath>
</defs>
</svg>
