<svg width="114" height="28" viewBox="0 0 114 28" fill="none" xmlns="http://www.w3.org/2000/svg">
<g clip-path="url(#clip0_269_2861)">
<path d="M32.4463 16.1109C32.4447 16.2082 32.4046 16.3009 32.3348 16.3688C32.265 16.4367 32.1711 16.4741 32.0738 16.473H25.2135C25.3894 18.17 26.6621 19.7221 28.4626 19.7221C29.6939 19.7221 30.6045 19.2565 31.2874 18.2735C31.3192 18.2218 31.3632 18.1788 31.4155 18.1481C31.4678 18.1174 31.5269 18.1001 31.5875 18.0976C31.6327 18.0963 31.6776 18.1042 31.7196 18.1209C31.7617 18.1376 31.7998 18.1627 31.8318 18.1947C31.8637 18.2267 31.8889 18.2648 31.9056 18.3068C31.9223 18.3489 31.9302 18.3938 31.9289 18.439C31.9292 18.5014 31.9112 18.5626 31.8772 18.6149C31.1839 19.8152 29.8077 20.405 28.4626 20.405C26.1551 20.405 24.4995 18.3356 24.4995 16.1316C24.4995 13.9276 26.1447 11.8581 28.4626 11.8581C30.7804 11.8581 32.436 13.9069 32.4463 16.1109ZM31.7116 15.7901C31.5668 14.0931 30.263 12.541 28.4626 12.541C26.6621 12.541 25.3894 14.0931 25.2135 15.7901H31.7116Z" fill="#3B3B3B"/>
<path d="M40.7861 12.0236C40.8759 12.0262 40.9612 12.0631 41.0247 12.1265C41.0882 12.19 41.125 12.2754 41.1276 12.3651C41.1289 12.4103 41.1209 12.4553 41.1042 12.4973C41.0875 12.5393 41.0624 12.5775 41.0305 12.6094C40.9985 12.6414 40.9603 12.6665 40.9183 12.6832C40.8763 12.6999 40.8313 12.7079 40.7861 12.7066H38.9443V19.9394C38.9435 20.0297 38.9073 20.1161 38.8434 20.1799C38.7795 20.2438 38.6932 20.28 38.6029 20.2809C38.5131 20.2782 38.4278 20.2414 38.3643 20.178C38.3008 20.1145 38.264 20.0291 38.2614 19.9394V12.7066H36.492C36.4468 12.7079 36.4018 12.6999 36.3598 12.6832C36.3178 12.6665 36.2796 12.6414 36.2477 12.6094C36.2157 12.5775 36.1906 12.5393 36.1739 12.4973C36.1572 12.4553 36.1492 12.4103 36.1505 12.3651C36.1513 12.2748 36.1876 12.1884 36.2514 12.1246C36.3153 12.0607 36.4017 12.0245 36.492 12.0236H38.2614V9.38506C38.2616 9.29763 38.2929 9.21313 38.3498 9.14674C38.4067 9.08036 38.4854 9.03645 38.5718 9.0229C38.6201 9.01649 38.6692 9.02058 38.7157 9.03489C38.7623 9.04919 38.8052 9.07338 38.8416 9.1058C38.8779 9.13822 38.9068 9.17811 38.9264 9.22273C38.9459 9.26736 38.9555 9.31567 38.9547 9.36437V12.0236H40.7861Z" fill="#3B3B3B"/>
<path d="M52.013 15.5211V19.898C52.0104 19.9877 51.9736 20.0731 51.9102 20.1366C51.8467 20.2 51.7613 20.2369 51.6716 20.2395C51.6264 20.2407 51.5814 20.2328 51.5394 20.2161C51.4974 20.1994 51.4592 20.1743 51.4273 20.1423C51.3953 20.1103 51.3702 20.0722 51.3535 20.0302C51.3368 19.9882 51.3288 19.9432 51.3301 19.898V15.5211C51.3301 14.0414 50.492 12.572 48.8468 12.572C46.7359 12.572 45.8253 14.4139 45.9495 16.3075C45.9495 16.3592 45.9702 16.5765 45.9702 16.6075V19.8876C45.97 19.9751 45.9387 20.0596 45.8818 20.126C45.8249 20.1923 45.7461 20.2363 45.6598 20.2498C45.6115 20.2562 45.5624 20.2521 45.5158 20.2378C45.4693 20.2235 45.4263 20.1993 45.39 20.1669C45.3536 20.1345 45.3247 20.0946 45.3052 20.05C45.2857 20.0053 45.276 19.957 45.2769 19.9083V5.51514C45.2777 5.42483 45.314 5.33845 45.3778 5.27458C45.4417 5.21072 45.5281 5.17449 45.6184 5.17368C45.7081 5.17628 45.7935 5.21309 45.8569 5.27657C45.9204 5.34005 45.9572 5.4254 45.9598 5.51514V13.6482C46.5496 12.5927 47.6051 11.8788 48.8364 11.8788C50.8645 11.8788 52.013 13.6482 52.013 15.5211Z" fill="#3B3B3B"/>
<path d="M64.3369 16.1109C64.3353 16.2082 64.2952 16.3009 64.2254 16.3688C64.1556 16.4367 64.0618 16.4741 63.9644 16.473H57.1041C57.28 18.17 58.5527 19.7221 60.3532 19.7221C61.5845 19.7221 62.4951 19.2565 63.178 18.2735C63.2098 18.2218 63.2538 18.1788 63.3061 18.1481C63.3584 18.1174 63.4175 18.1001 63.4781 18.0976C63.5233 18.0963 63.5683 18.1042 63.6103 18.1209C63.6523 18.1376 63.6904 18.1627 63.7224 18.1947C63.7544 18.2267 63.7795 18.2648 63.7962 18.3068C63.8129 18.3489 63.8208 18.3938 63.8196 18.439C63.8198 18.5014 63.8018 18.5626 63.7678 18.6149C63.0745 19.8152 61.6983 20.405 60.3532 20.405C58.0457 20.405 56.3901 18.3356 56.3901 16.1316C56.3901 13.9276 58.0354 11.8581 60.3532 11.8581C62.6503 11.8581 64.3266 13.9069 64.3369 16.1109ZM63.5919 15.7901C63.4471 14.0931 62.1433 12.541 60.3428 12.541C58.5424 12.541 57.2697 14.0931 57.0938 15.7901H63.5919Z" fill="#3B3B3B"/>
<path d="M72.77 12.3444C72.7766 12.4363 72.7466 12.527 72.6865 12.5968C72.6264 12.6666 72.5411 12.7098 72.4493 12.7169C70.4315 13.017 69.521 14.6622 69.521 16.5765V19.8566C69.5208 19.944 69.4894 20.0285 69.4325 20.0949C69.3756 20.1613 69.2969 20.2052 69.2105 20.2188C69.1623 20.2252 69.1132 20.2211 69.0666 20.2068C69.02 20.1925 68.9771 20.1683 68.9408 20.1359C68.9044 20.1035 68.8755 20.0636 68.856 20.0189C68.8365 19.9743 68.8268 19.926 68.8277 19.8773V12.3962C68.8279 12.3087 68.8592 12.2242 68.9161 12.1578C68.973 12.0915 69.0517 12.0475 69.1381 12.034C69.1864 12.0276 69.2355 12.0317 69.282 12.046C69.3286 12.0603 69.3715 12.0845 69.4079 12.1169C69.4442 12.1493 69.4731 12.1892 69.4927 12.2338C69.5122 12.2785 69.5218 12.3268 69.521 12.3755V13.8965C70.0901 12.9342 71.2179 12.0237 72.3975 12.0237C72.5734 12.0237 72.77 12.1478 72.77 12.3444Z" fill="#3B3B3B"/>
<path d="M84.0488 16.1109C84.0472 16.2082 84.0071 16.3009 83.9373 16.3688C83.8675 16.4367 83.7737 16.4741 83.6763 16.473H76.816C76.9919 18.17 78.2647 19.7221 80.0651 19.7221C81.2964 19.7221 82.207 19.2565 82.8899 18.2735C82.9217 18.2218 82.9657 18.1788 83.018 18.1481C83.0704 18.1174 83.1294 18.1001 83.19 18.0976C83.2352 18.0963 83.2802 18.1042 83.3222 18.1209C83.3642 18.1376 83.4024 18.1627 83.4343 18.1947C83.4663 18.2267 83.4914 18.2648 83.5081 18.3068C83.5248 18.3489 83.5328 18.3938 83.5315 18.439C83.5317 18.5014 83.5137 18.5626 83.4797 18.6149C82.7865 19.8152 81.4103 20.405 80.0651 20.405C77.7576 20.405 76.1021 18.3356 76.1021 16.1316C76.1021 13.9276 77.7473 11.8581 80.0651 11.8581C82.3829 11.8581 84.0385 13.9069 84.0488 16.1109ZM83.3142 15.7901C83.1693 14.0931 81.8655 12.541 80.0651 12.541C78.2647 12.541 76.9919 14.0931 76.816 15.7901H83.3142Z" fill="#3B3B3B"/>
<path d="M95.1411 12.4272V19.9394C95.1385 20.0291 95.1017 20.1145 95.0382 20.178C94.9748 20.2415 94.8894 20.2783 94.7997 20.2809C94.7545 20.2822 94.7095 20.2742 94.6675 20.2575C94.6255 20.2408 94.5873 20.2157 94.5554 20.1837C94.5234 20.1517 94.4983 20.1136 94.4816 20.0716C94.4649 20.0296 94.4569 19.9846 94.4582 19.9394V18.5115C93.8891 19.6393 92.8854 20.4568 91.6023 20.4568C89.5639 20.4568 88.436 18.6874 88.436 16.8145V12.4169C88.4368 12.3265 88.4731 12.2402 88.5369 12.1763C88.6008 12.1124 88.6872 12.0762 88.7775 12.0754C88.8672 12.078 88.9526 12.1148 89.0161 12.1783C89.0795 12.2418 89.1164 12.3271 89.119 12.4169V16.8145C89.119 18.2942 89.9571 19.7635 91.6023 19.7635C93.9098 19.7635 94.4582 17.6009 94.4582 15.2107V12.4065C94.459 12.3512 94.473 12.2968 94.4991 12.248C94.5252 12.1991 94.5626 12.1573 94.6082 12.1258C94.6538 12.0944 94.7062 12.0744 94.7611 12.0674C94.816 12.0605 94.8718 12.0667 94.9238 12.0857C94.9889 12.116 95.0439 12.1642 95.0824 12.2247C95.1209 12.2852 95.1413 12.3555 95.1411 12.4272Z" fill="#3B3B3B"/>
<path d="M112.514 15.49V19.8877C112.512 19.9774 112.475 20.0627 112.411 20.1262C112.348 20.1897 112.262 20.2265 112.173 20.2291C112.128 20.2304 112.083 20.2224 112.041 20.2057C111.999 20.189 111.96 20.1639 111.928 20.132C111.896 20.1 111.871 20.0618 111.855 20.0198C111.838 19.9778 111.83 19.9328 111.831 19.8877V15.49C111.831 14.0103 110.993 12.5617 109.348 12.5617C107.278 12.5617 106.492 14.776 106.492 16.4937V19.8877C106.489 19.9774 106.453 20.0627 106.389 20.1262C106.326 20.1897 106.24 20.2265 106.151 20.2291C106.105 20.2304 106.06 20.2224 106.018 20.2057C105.976 20.189 105.938 20.1639 105.906 20.132C105.874 20.1 105.849 20.0618 105.833 20.0198C105.816 19.9778 105.808 19.9328 105.809 19.8877V15.49C105.809 14.0103 104.971 12.5617 103.326 12.5617C101.236 12.5617 100.377 14.2069 100.449 16.4006C100.449 16.4523 100.47 16.5455 100.449 16.5765V19.8773C100.449 19.9647 100.418 20.0492 100.361 20.1156C100.304 20.182 100.225 20.2259 100.139 20.2395C100.09 20.2459 100.041 20.2418 99.9948 20.2275C99.9483 20.2132 99.9053 20.189 99.869 20.1566C99.8327 20.1241 99.8037 20.0843 99.7842 20.0396C99.7647 19.995 99.755 19.9467 99.7559 19.898V12.3962C99.7561 12.3087 99.7874 12.2242 99.8443 12.1578C99.9012 12.0915 99.98 12.0475 100.066 12.034C100.115 12.0276 100.164 12.0317 100.21 12.046C100.257 12.0603 100.3 12.0845 100.336 12.1169C100.372 12.1493 100.401 12.1892 100.421 12.2338C100.44 12.2784 100.45 12.3268 100.449 12.3755V13.6275C101.039 12.5721 102.094 11.8788 103.326 11.8788C104.723 11.8788 105.809 12.7687 106.254 14.0621C106.823 12.779 107.93 11.8788 109.348 11.8788C111.366 11.8788 112.514 13.6275 112.514 15.49Z" fill="#3B3B3B"/>
<path opacity="0.6" d="M9.35102 10.3577L0.762695 14.2587L9.35102 19.3392L17.9497 14.2587L9.35102 10.3577Z" fill="black"/>
<path opacity="0.45" d="M0.762695 14.2587L9.35102 19.3392V0L0.762695 14.2587Z" fill="black"/>
<path opacity="0.8" d="M9.35107 0V19.3392L17.9497 14.2587L9.35107 0Z" fill="black"/>
<path opacity="0.45" d="M0.762695 15.8936L9.35102 28V20.9638L0.762695 15.8936Z" fill="black"/>
<path opacity="0.8" d="M9.35107 20.9638V28L17.9497 15.8936L9.35107 20.9638Z" fill="black"/>
</g>
<defs>
<clipPath id="clip0_269_2861">
<rect width="113" height="28" fill="white" transform="translate(0.428711)"/>
</clipPath>
</defs>
</svg>
