<svg width="56" height="56" viewBox="0 0 56 56" fill="none" xmlns="http://www.w3.org/2000/svg">
<path d="M36.129 28C36.129 23.5176 32.4825 19.8711 28.0001 19.8711C23.5177 19.8711 19.8712 23.5176 19.8712 28C19.8712 32.4824 23.5177 36.1289 28.0001 36.1289C32.4825 36.1289 36.129 32.4824 36.129 28ZM21.677 28C21.677 24.5137 24.5133 21.6773 27.9997 21.6773C31.4861 21.6773 34.3224 24.5136 34.3224 28C34.3224 31.4864 31.4861 34.3227 27.9997 34.3227C24.5133 34.3227 21.677 31.4864 21.677 28Z" fill="#26619C"/>
<path d="M28.903 32.516V30.7098H30.7096V28.9032H28.903V27.4712L31.3483 25.0259L30.071 23.7486L27.9999 25.8197L25.9288 23.7486L24.6515 25.0259L27.0968 27.4712V28.9032H25.2902V30.7098H27.0968V32.516H28.903Z" fill="#26619C"/>
<path d="M9.93599 12.645C9.43794 12.645 9.03287 12.2399 9.03287 11.7419L7.22627 11.7415C7.22627 12.9188 7.98135 13.9227 9.03287 14.2958V16.2579H10.8395V14.4513H12.6461V11.7415C12.6461 10.2474 11.4305 9.03169 9.93627 9.03169C9.43822 9.03169 9.03315 8.62661 9.03315 8.12857V7.22545H9.93627C10.4343 7.22545 10.8394 7.63053 10.8394 8.12857H12.646C12.646 6.95127 11.8909 5.94737 10.8394 5.57427L10.839 3.61257H9.0328V5.41917H7.2262V8.12897C7.2262 9.62307 8.4418 10.8388 9.936 10.8388C10.434 10.8388 10.8391 11.2438 10.8391 11.7419V12.645L9.93599 12.645Z" fill="#26619C"/>
<path d="M9.93599 19.871C15.4145 19.871 19.8715 15.414 19.8715 9.9355C19.8715 4.457 15.4145 0 9.93599 0C4.45749 0 0.000488281 4.457 0.000488281 9.9355C0.000488281 15.414 4.45749 19.871 9.93599 19.871ZM9.93599 1.807C14.4184 1.807 18.0649 5.4535 18.0649 9.9359C18.0649 14.4183 14.4184 18.0648 9.93599 18.0648C5.45359 18.0648 1.80709 14.4183 1.80709 9.9359C1.80709 5.4535 5.45359 1.807 9.93599 1.807Z" fill="#26619C"/>
<path d="M46.064 19.871C51.5425 19.871 55.9995 15.414 55.9995 9.9355C55.9995 4.457 51.5425 0 46.064 0C40.5855 0 36.1285 4.457 36.1285 9.9355C36.1285 15.414 40.5855 19.871 46.064 19.871ZM46.064 1.807C50.5464 1.807 54.1929 5.4535 54.1929 9.9359C54.1929 14.4183 50.5464 18.0648 46.064 18.0648C41.5816 18.0648 37.9351 14.4183 37.9351 9.9359C37.9351 5.4535 41.5816 1.807 46.064 1.807Z" fill="#26619C"/>
<path d="M9.93599 36.129C4.45749 36.129 0.000488281 40.586 0.000488281 46.0645C0.000488281 51.543 4.45749 56 9.93599 56C15.4145 56 19.8715 51.543 19.8715 46.0645C19.8715 40.586 15.4145 36.129 9.93599 36.129ZM9.93599 54.193C5.45359 54.193 1.80709 50.5465 1.80709 46.0641C1.80709 41.5817 5.45359 37.9352 9.93599 37.9352C14.4184 37.9352 18.0649 41.5817 18.0649 46.0641C18.0649 50.5465 14.4184 54.193 9.93599 54.193Z" fill="#26619C"/>
<path d="M46.064 36.129C40.5855 36.129 36.1285 40.586 36.1285 46.0645C36.1285 51.543 40.5855 56 46.064 56C51.5425 56 55.9995 51.543 55.9995 46.0645C55.9995 40.586 51.5425 36.129 46.064 36.129ZM46.064 54.193C41.5816 54.193 37.9351 50.5465 37.9351 46.0641C37.9351 41.5817 41.5816 37.9352 46.064 37.9352C50.5464 37.9352 54.1929 41.5817 54.1929 46.0641C54.1929 50.5465 50.5464 54.193 46.064 54.193Z" fill="#26619C"/>
<path d="M5.41999 40.645H14.4524V42.4516H5.41999V40.645Z" fill="#26619C"/>
<path d="M14.374 49.381C14.1826 49.5724 13.9283 49.6779 13.658 49.6779C13.0994 49.6779 12.6451 49.2236 12.6451 48.665V46.0646H14.4517V44.258L5.41927 44.2584V46.065H7.22587V47.8716C7.22587 48.8677 6.41532 49.6782 5.41927 49.6782V51.4848C7.41147 51.4848 9.03217 49.8641 9.03217 47.8719V46.0653H10.8388V48.6653C10.8384 50.2192 12.1033 51.4841 13.6579 51.4841C14.411 51.4841 15.1188 51.1907 15.6513 50.6583L15.9931 50.3165L14.7158 49.0392L14.374 49.381Z" fill="#26619C"/>
<path d="M47.871 40.645H43.355V47.8708H41.5484V49.6774H43.355V51.484H45.1616V49.6774H48.7745V47.8708H45.1616V46.0642H47.8714C49.3655 46.0642 50.5812 44.8486 50.5812 43.3544C50.5804 41.8606 49.3652 40.645 47.871 40.645ZM47.871 44.2579H45.1612V42.4513H47.871C48.369 42.4513 48.7741 42.8564 48.7741 43.3544C48.7741 43.8525 48.369 44.2579 47.871 44.2579Z" fill="#26619C"/>
<path d="M46.968 16.258C48.9602 16.258 50.5809 14.6373 50.5809 12.6451H48.7743C48.7743 13.6412 47.9637 14.4517 46.9677 14.4517C45.9716 14.4517 45.1611 13.6411 45.1611 12.6451H46.9677L46.9681 10.8385H45.1615L45.1619 9.0323H46.9685L46.9681 7.2257H45.1615C45.1615 6.22961 45.972 5.4191 46.9681 5.4191C47.9642 5.4191 48.7747 6.22965 48.7747 7.2257H50.5813C50.5813 5.2335 48.9606 3.6128 46.9684 3.6128C44.9762 3.6128 43.3555 5.2335 43.3555 7.2257H41.5489V9.0323H43.3555V10.8389H41.5489V12.6455H43.3555C43.3551 14.6373 44.9758 16.258 46.968 16.258Z" fill="#26619C"/>
<path d="M28 48.774C26.5059 48.774 25.2902 49.9896 25.2902 51.4838C25.2902 52.978 26.5058 54.1936 28 54.1936C29.4942 54.1936 30.7098 52.978 30.7098 51.4838C30.7098 49.9896 29.4942 48.774 28 48.774ZM28 52.3869C27.5019 52.3869 27.0969 51.9818 27.0969 51.4838C27.0969 50.9857 27.5019 50.5807 28 50.5807C28.498 50.5807 28.9031 50.9857 28.9031 51.4838C28.9031 51.9818 28.498 52.3869 28 52.3869Z" fill="#26619C"/>
<path d="M32.516 43.884V38.8383C35.3644 37.6469 37.6469 35.3645 38.8379 32.5164H43.8836L45.1609 33.7941C45.5019 34.1351 45.9558 34.323 46.4382 34.323L48.7741 34.3226V32.516H46.4386L45.1613 31.2383C44.8203 30.8973 44.3664 30.7094 43.884 30.7094L39.4258 30.7098C39.5648 30.1231 39.6606 29.52 39.7074 28.9032L46.9676 28.9036V27.097H39.7074C39.6602 26.4802 39.5648 25.8771 39.4258 25.2904H43.884C44.3664 25.2904 44.8199 25.1025 45.1613 24.7611L46.4386 23.4841H48.7741V21.6775H46.4386C45.9562 21.6775 45.5026 21.8654 45.1613 22.2068L43.884 23.4841H38.8383C37.6469 20.6357 35.3645 18.3532 32.5164 17.1622V12.1165L33.7937 10.8392C34.1351 10.4982 34.323 10.0443 34.323 9.56189L34.3226 7.22599H32.516V9.56149L31.2387 10.8388C30.8973 11.1798 30.7094 11.6337 30.7094 12.1161L30.7098 16.5743C30.1231 16.4352 29.52 16.3395 28.9032 16.2926L28.9036 9.03245H27.097V16.2926C26.4802 16.3399 25.8771 16.4352 25.2904 16.5743V12.1161C25.2904 11.6337 25.1025 11.1798 24.7615 10.8388L23.4842 9.56149V7.22599H21.6776V9.56149C21.6776 10.0439 21.8655 10.4978 22.2065 10.8388L23.4842 12.1161V17.1618C20.6358 18.3532 18.3533 20.6356 17.1623 23.4841H12.1166L10.8393 22.2064C10.4983 21.8654 10.0444 21.6775 9.56198 21.6775H7.22608V23.4841H9.56158L10.8389 24.7618C11.1799 25.1028 11.6338 25.2907 12.1162 25.2907L16.5744 25.2903C16.4353 25.877 16.3396 26.4801 16.2927 27.0969H9.03254V28.9035H16.2927C16.34 29.5203 16.4353 30.1234 16.5744 30.7101H12.1162C11.6338 30.7101 11.1802 30.898 10.8389 31.2394L9.56158 32.516H7.22608V34.3226H9.56158C10.044 34.3226 10.4975 34.1347 10.8389 33.7933L12.1162 32.516H17.1619C18.3533 35.3644 20.6357 37.6469 23.4838 38.8379V43.8836L22.2065 45.1609C21.8651 45.5019 21.6772 45.9558 21.6772 46.4382L21.6776 48.7741H23.4842V46.4386L24.7615 45.1613C25.1029 44.8203 25.2908 44.3664 25.2908 43.884L25.2904 39.4258C25.8771 39.5649 26.4802 39.6606 27.097 39.7074L27.0966 46.9676H28.9032V39.7074C29.52 39.6602 30.1231 39.5649 30.7098 39.4258V43.884C30.7098 44.3664 30.8977 44.8203 31.2387 45.1613L32.516 46.4386V48.7741H34.3226V46.4386C34.3226 45.9562 34.1347 45.5023 33.7937 45.1613L32.516 43.884ZM18.064 28C18.064 22.5215 22.521 18.0645 27.9995 18.0645C33.478 18.0645 37.935 22.5215 37.935 28C37.935 33.4785 33.478 37.9355 27.9995 37.9355C22.521 37.9355 18.064 33.4785 18.064 28Z" fill="#26619C"/>
<path d="M32.516 50.58H34.3226V52.3866H32.516V50.58Z" fill="#26619C"/>
<path d="M21.677 50.58H23.4836V52.3866H21.677V50.58Z" fill="#26619C"/>
<path d="M54.193 28C54.193 26.5059 52.9774 25.2902 51.4832 25.2902C49.9891 25.2902 48.7734 26.5058 48.7734 28C48.7734 29.4942 49.989 30.7098 51.4832 30.7098C52.9777 30.7098 54.193 29.4942 54.193 28ZM51.4836 28.9031C50.9855 28.9031 50.5805 28.498 50.5805 28C50.5805 27.502 50.9855 27.0969 51.4836 27.0969C51.9816 27.0969 52.3867 27.502 52.3867 28C52.3867 28.498 51.9816 28.9031 51.4836 28.9031Z" fill="#26619C"/>
<path d="M50.58 21.677H52.3866V23.4836H50.58V21.677Z" fill="#26619C"/>
<path d="M50.58 32.516H52.3866V34.3226H50.58V32.516Z" fill="#26619C"/>
<path d="M28 7.2258C29.4941 7.2258 30.7098 6.0102 30.7098 4.516C30.7098 3.0218 29.4942 1.8062 28 1.8062C26.5058 1.8062 25.2902 3.0218 25.2902 4.516C25.2902 6.0102 26.5058 7.2258 28 7.2258ZM28 3.6129C28.498 3.6129 28.9031 4.01798 28.9031 4.51602C28.9031 5.01407 28.498 5.41914 28 5.41914C27.5019 5.41914 27.0969 5.01406 27.0969 4.51602C27.0969 4.01797 27.5019 3.6129 28 3.6129Z" fill="#26619C"/>
<path d="M21.677 3.6129H23.4836V5.4195H21.677V3.6129Z" fill="#26619C"/>
<path d="M32.516 3.6129H34.3226V5.4195H32.516V3.6129Z" fill="#26619C"/>
<path d="M7.22599 28C7.22599 26.5059 6.01039 25.2902 4.51619 25.2902C3.02199 25.2902 1.80639 26.5058 1.80639 28C1.80639 29.4942 3.02199 30.7098 4.51619 30.7098C6.01039 30.7098 7.22599 29.4942 7.22599 28ZM4.51619 28.9031C4.01814 28.9031 3.61307 28.498 3.61307 28C3.61307 27.502 4.01815 27.0969 4.51619 27.0969C5.01424 27.0969 5.41931 27.502 5.41931 28C5.4197 28.498 5.01423 28.9031 4.51619 28.9031Z" fill="#26619C"/>
<path d="M3.61299 32.516H5.41959V34.3226H3.61299V32.516Z" fill="#26619C"/>
<path d="M3.61299 21.677H5.41959V23.4836H3.61299V21.677Z" fill="#26619C"/>
</svg>
