<svg width="110" height="28" viewBox="0 0 110 28" fill="none" xmlns="http://www.w3.org/2000/svg">
<g clip-path="url(#clip0_269_2858)">
<path d="M11.2398 0.268218C11.9203 -0.0894058 12.9558 -0.0894058 13.6363 0.268218L20.5805 3.91743C20.9904 4.13281 21.2155 4.45376 21.2558 4.78508H21.2624V23.128C21.2534 23.4893 21.0262 23.8483 20.5805 24.0826L13.6363 27.7318C12.9558 28.0894 11.9203 28.0894 11.2398 27.7318L4.29557 24.0826C3.85178 23.8494 3.6388 23.4878 3.62826 23.128C3.62721 23.0925 3.62708 23.063 3.62808 23.0385L3.62804 4.9029C3.62734 4.88304 3.62727 4.8632 3.62784 4.84344L3.62826 4.78508L3.63136 4.78506C3.66221 4.45011 3.87708 4.13736 4.29557 3.91743L11.2398 0.268218ZM20.1692 15.0185L13.6363 18.4516C12.9558 18.8092 11.9203 18.8092 11.2398 18.4516L4.72113 15.0261V23.0916L11.2398 26.4991C11.6078 26.6949 11.9899 26.8856 12.3635 26.9099L12.438 26.9123C12.8273 26.9136 13.2052 26.717 13.5884 26.5308L20.1692 23.0623V15.0185ZM2.49879 22.7292C2.49879 23.4318 2.58088 23.8938 2.74388 24.2193C2.87898 24.489 3.08169 24.6951 3.45182 24.946L3.47294 24.9602C3.55417 25.0147 3.64366 25.0718 3.75257 25.1387L3.88102 25.217L4.27545 25.4539L3.70974 26.3845L3.26827 26.1191L3.19407 26.0739C3.06642 25.9953 2.96062 25.9282 2.86194 25.8619C1.80706 25.1542 1.41364 24.3829 1.40588 22.778L1.40576 22.7292H2.49879ZM11.8914 10.102C11.8408 10.1193 11.7934 10.1393 11.7502 10.162L4.80605 13.8112C4.79876 13.815 4.79181 13.8188 4.7852 13.8226L4.77932 13.826L4.79021 13.8322L4.80605 13.8407L11.7502 17.4899C11.7934 17.5127 11.8408 17.5326 11.8914 17.5499V10.102ZM12.9847 10.102V17.5499C13.0353 17.5326 13.0827 17.5127 13.1258 17.4899L20.07 13.8407C20.0773 13.8369 20.0843 13.8331 20.0909 13.8294L20.0968 13.826L20.0859 13.8198L20.07 13.8112L13.1258 10.162C13.0827 10.1393 13.0353 10.1193 12.9847 10.102ZM20.1692 6.08627L13.9399 9.35986L20.1692 12.6334V6.08627ZM4.72113 6.09392V12.6258L10.936 9.35986L4.72113 6.09392ZM13.1258 1.22984C12.7647 1.04007 12.1114 1.04007 11.7502 1.22984L4.80605 4.87908C4.79876 4.88291 4.79181 4.88669 4.7852 4.89043L4.77932 4.89382L4.79021 4.90003L4.80605 4.90859L11.7502 8.55781C12.1114 8.74758 12.7647 8.74758 13.1258 8.55781L20.07 4.90859C20.0773 4.90476 20.0843 4.90097 20.0909 4.89721L20.0968 4.89382L20.0859 4.88761L20.07 4.87908L13.1258 1.22984ZM21.1955 1.63002L21.637 1.8953L21.7112 1.94063C21.8388 2.01902 21.9446 2.08637 22.0433 2.15256C23.0982 2.86015 23.4916 3.63161 23.4992 5.23645L23.4995 5.28534H22.4064C22.4064 4.58254 22.3243 4.12063 22.1614 3.7952C22.0263 3.52548 21.8235 3.31935 21.4534 3.06853L21.4323 3.05429C21.3511 2.9998 21.2616 2.94273 21.1527 2.87564L21.0242 2.79737L20.6298 2.56055L21.1955 1.63002Z" fill="#1969FF"/>
<path d="M34.6033 22.3632V12.1337H37.44V10.2607H34.6033V8.91602C34.6033 7.39523 35.2685 6.63484 36.5987 6.63484C36.9832 6.63484 37.3921 6.69886 37.8248 6.82692V4.83387C37.2958 4.67379 36.7109 4.59375 36.0697 4.59375C34.8358 4.59375 33.8781 4.94594 33.1969 5.65031C32.5157 6.35468 32.1751 7.37922 32.1751 8.72394V10.2607H29.8433V12.1337H32.1751V22.3632H34.6033ZM44.4599 22.5312C45.3896 22.5312 46.2029 22.3391 46.9 21.9548C47.5972 21.5707 48.1222 21.0184 48.4748 20.298V22.3632H50.8789V10.2607H48.4748V12.2298C48.106 11.5094 47.5773 10.9531 46.888 10.5609C46.1989 10.1687 45.3896 9.97258 44.4599 9.97258C43.4182 9.97258 42.4885 10.2367 41.6713 10.765C40.8538 11.2933 40.2168 12.0377 39.7601 12.9982C39.3033 13.9587 39.0749 15.0633 39.0749 16.3119C39.0749 17.5606 39.2991 18.6532 39.748 19.5897C40.1967 20.5262 40.8258 21.2505 41.6352 21.7628C42.4445 22.2751 43.386 22.5312 44.4599 22.5312ZM45.0369 20.6102C43.931 20.6102 43.0695 20.234 42.4526 19.4816C41.8356 18.7292 41.5269 17.6727 41.5269 16.3119C41.5269 14.9352 41.8356 13.8586 42.4526 13.0822C43.0695 12.3058 43.9231 11.9176 45.0129 11.9176C46.1187 11.9176 46.9722 12.2938 47.5731 13.0462C48.1743 13.7986 48.4748 14.8712 48.4748 16.2639C48.4748 17.6406 48.1743 18.7092 47.5731 19.4696C46.9722 20.23 46.1268 20.6102 45.0369 20.6102ZM56.8409 22.3632V15.4715C56.8409 14.3989 57.1493 13.5425 57.7664 12.9021C58.3835 12.2618 59.2049 11.9416 60.2306 11.9416C61.1282 11.9416 61.7811 12.1818 62.19 12.662C62.5986 13.1423 62.8029 13.9107 62.8029 14.9672V22.3632H65.231V14.8232C65.231 11.5894 63.7805 9.97258 60.8797 9.97258C59.9502 9.97258 59.1207 10.1767 58.3914 10.5849C57.6623 10.9931 57.1054 11.5814 56.7206 12.3498L56.5042 10.2607H54.2446C54.3727 11.2693 54.4368 12.4059 54.4368 13.6705V22.3632H56.8409ZM73.3567 22.5312C74.0298 22.5312 74.6309 22.4433 75.1599 22.2672V20.298C74.7269 20.4261 74.3024 20.4901 73.8856 20.4901C73.2445 20.4901 72.7438 20.318 72.383 19.9739C72.0225 19.6297 71.8421 19.0414 71.8421 18.2089V12.1337H75.1839V10.2607H71.8421V6.39469L69.4142 7.23515V10.2607H67.058V12.1337H69.4142V18.401C69.4142 19.7457 69.7587 20.7703 70.4478 21.4747C71.1371 22.179 72.1065 22.5312 73.3567 22.5312ZM82.6365 22.5312C83.8064 22.5312 84.8402 22.2751 85.7377 21.7628C86.6352 21.2505 87.3282 20.5222 87.8171 19.5777C88.306 18.6332 88.5504 17.5286 88.5504 16.2639C88.5504 14.9992 88.306 13.8906 87.8171 12.9381C87.3282 11.9856 86.6352 11.2533 85.7377 10.741C84.8402 10.2287 83.8064 9.97258 82.6365 9.97258C81.4504 9.97258 80.4087 10.2287 79.5112 10.741C78.6137 11.2533 77.9205 11.9856 77.4316 12.9381C76.9429 13.8906 76.6983 14.9992 76.6983 16.2639C76.6983 17.5286 76.9429 18.6332 77.4316 19.5777C77.9205 20.5222 78.6137 21.2505 79.5112 21.7628C80.4087 22.2751 81.4504 22.5312 82.6365 22.5312ZM82.6124 20.6102C81.5064 20.6102 80.6531 20.242 80.052 19.5056C79.4511 18.7692 79.1505 17.6887 79.1505 16.2639C79.1505 14.8712 79.455 13.7986 80.064 13.0462C80.673 12.2938 81.5305 11.9176 82.6365 11.9176C83.7263 11.9176 84.5718 12.2938 85.1727 13.0462C85.7738 13.7986 86.0741 14.8712 86.0741 16.2639C86.0741 17.6887 85.7777 18.7692 85.1847 19.5056C84.5917 20.242 83.7342 20.6102 82.6124 20.6102ZM93.7912 22.3632V15.5195C93.7912 14.4149 94.0638 13.5425 94.6087 12.9021C95.1536 12.2618 95.8907 11.9416 96.8204 11.9416C97.6217 11.9416 98.2027 12.1818 98.5632 12.662C98.9239 13.1423 99.1042 13.9027 99.1042 14.9432V22.3632H101.532V15.5195C101.532 14.4149 101.801 13.5425 102.338 12.9021C102.875 12.2618 103.608 11.9416 104.537 11.9416C105.339 11.9416 105.92 12.1818 106.28 12.662C106.641 13.1423 106.821 13.9027 106.821 14.9432V22.3632H109.249V14.8232C109.249 11.5894 107.903 9.97258 105.211 9.97258C104.313 9.97258 103.508 10.1807 102.794 10.5969C102.081 11.0131 101.54 11.5814 101.172 12.3018C100.595 10.749 99.3686 9.97258 97.4935 9.97258C96.612 9.97258 95.8426 10.1727 95.1855 10.5729C94.5284 10.9731 94.0237 11.5414 93.6711 12.2778L93.4548 10.2607H91.1949C91.323 11.2693 91.3871 12.4059 91.3871 13.6705V22.3632H93.7912Z" fill="#1969FF"/>
</g>
<defs>
<clipPath id="clip0_269_2858">
<rect width="109" height="28" fill="white" transform="translate(0.571289)"/>
</clipPath>
</defs>
</svg>
