<svg width="56" height="56" viewBox="0 0 56 56" fill="none" xmlns="http://www.w3.org/2000/svg">
<path d="M9.26158 41.2657C9.3271 41.3355 9.40966 41.3829 9.48903 41.4362C13.2657 44.18 17.8947 45.8185 22.9098 45.8185C27.9243 45.8185 32.5534 44.18 36.33 41.4362C36.4099 41.3829 36.4919 41.3355 36.5574 41.2657C37.1114 40.8529 37.6446 40.4177 38.1581 39.9575L53.8278 55.6271C54.0765 55.8759 54.4025 56 54.728 56C55.0535 56 55.3794 55.8759 55.6277 55.6271C56.1246 55.1301 56.1246 54.3247 55.6277 53.8272L39.958 38.1576C43.5887 34.1024 45.8185 28.7676 45.8185 22.9093C45.8185 10.2769 35.5417 0 22.9093 0C10.2769 0 0 10.2769 0 22.9093C0 30.4247 3.65362 37.0857 9.26107 41.2653L9.26158 41.2657ZM11.4551 39.7327V38.1821C11.4551 34.6734 14.3103 31.8182 17.819 31.8182H28.0011C31.5098 31.8182 34.365 34.6734 34.365 38.1821V39.7327C31.0981 41.9635 27.1547 43.2729 22.9098 43.2729C18.6643 43.2729 14.7209 41.9635 11.4551 39.7327ZM22.9098 2.54468C34.138 2.54468 43.2731 11.68 43.2731 22.908C43.2731 28.4825 41.0178 33.5375 37.3764 37.2181C37.3466 37.2426 37.3099 37.2528 37.2822 37.281C37.2545 37.3087 37.2443 37.3454 37.2193 37.3753C37.1117 37.4818 36.9935 37.5766 36.8837 37.6805C36.6222 33.0015 32.7438 29.2717 28.0002 29.2717H17.8182C13.0747 29.2717 9.19623 33.001 8.93427 37.6805C5.0101 33.9662 2.54531 28.7252 2.54531 22.9081C2.54531 11.6793 11.6807 2.5434 22.91 2.5434L22.9098 2.54468Z" fill="#26619C"/>
<path d="M22.9103 26.7279C27.1211 26.7279 30.5467 23.3022 30.5467 19.0914C30.5467 14.8806 27.1211 11.455 22.9103 11.455C18.6995 11.455 15.2739 14.8806 15.2739 19.0914C15.2739 23.3022 18.699 26.7279 22.9103 26.7279ZM22.9103 14.0001C25.7175 14.0001 28.0011 16.2842 28.0011 19.0909C28.0011 21.8981 25.717 24.1817 22.9103 24.1817C20.1031 24.1817 17.8196 21.8976 17.8196 19.0909C17.819 16.2842 20.1031 14.0001 22.9103 14.0001Z" fill="#26619C"/>
</svg>
