<svg width="58" height="58" viewBox="0 0 58 58" fill="none" xmlns="http://www.w3.org/2000/svg">
<path fill-rule="evenodd" clip-rule="evenodd" d="M40.0483 3.13395C43.4386 4.53279 46.4257 6.5478 48.939 9.06104C51.4522 11.5743 53.4672 14.5613 54.8661 17.9517C56.2413 21.3186 57 25.0407 57 29C57 32.9591 56.2414 36.6818 54.8661 40.0483C53.4672 43.4386 51.4522 46.4262 48.939 48.939C46.4257 51.4522 43.4387 53.4677 40.0483 54.8665C36.6814 56.2413 32.9593 57 29 57C25.0409 57 21.3182 56.2414 17.9517 54.8665C14.5614 53.4677 11.5738 51.4522 9.06061 48.939C6.5478 46.4262 4.53236 43.4387 3.13352 40.0483C1.75867 36.6819 1 32.9593 1 29C1 25.0405 1.75864 21.3182 3.13352 17.9517C4.53236 14.5614 6.5478 11.5743 9.06061 9.06104C11.5738 6.5478 14.5613 4.53279 17.9517 3.13395C21.3181 1.75867 25.0407 1 29 1C32.9595 1 36.6818 1.75864 40.0483 3.13395ZM39.3842 53.1825C42.514 51.9026 45.3352 50.0055 47.6825 47.6822C50.0059 45.3349 51.9025 42.5138 53.1828 39.3843C54.4867 36.2073 55.1983 32.7221 55.1983 28.9999C55.1983 25.2773 54.4867 21.7925 53.1828 18.6155C51.9025 15.4857 50.0059 12.6645 47.6825 10.3172C45.3352 7.99384 42.5141 6.09722 39.3842 4.8169C36.2072 3.51302 32.7224 2.80145 28.9998 2.80145C25.2777 2.80145 21.7924 3.51304 18.6154 4.8169C15.4859 6.09722 12.6648 7.99384 10.3175 10.3172C7.99419 12.6645 6.09714 15.4856 4.81724 18.6155C3.51293 21.7925 2.80179 25.2773 2.80179 28.9999C2.80179 32.7221 3.51296 36.2073 4.81724 39.3843C6.09714 42.5138 7.99419 45.3349 10.3175 47.6822C12.6648 50.0055 15.4859 51.9026 18.6154 53.1825C21.7924 54.4868 25.2777 55.1979 28.9998 55.1979C32.7224 55.1979 36.2072 54.4867 39.3842 53.1825Z" fill="#26619C"/>
<path fill-rule="evenodd" clip-rule="evenodd" d="M15.2257 21.0098C15.1307 21.0098 15.0597 21.0334 14.9888 21.0808C14.8464 21.1522 14.6804 21.2468 14.562 21.3892C14.4435 21.5076 14.3246 21.65 14.2536 21.8159C14.2301 21.8869 14.2062 21.9583 14.1826 22.0293C14.1587 22.1003 14.1587 22.1717 14.1587 22.2427V25.5856L27.2932 29.1894H30.5886L43.6995 25.6096V22.2427C43.6995 22.1717 43.6995 22.1003 43.6755 22.0293C43.652 21.9583 43.6281 21.8869 43.6045 21.8159C43.5335 21.65 43.4147 21.5076 43.2962 21.3892C43.1542 21.2468 43.0118 21.1522 42.8459 21.0808C42.7749 21.0334 42.7035 21.0098 42.6325 21.0098C42.5615 20.9863 42.4901 20.9863 42.4191 20.9863H15.4146C15.3432 20.9863 15.2722 20.9863 15.2247 21.0098H15.2257ZM14.1587 38.5544C14.1587 38.6019 14.1587 38.6733 14.1826 38.7443C14.2062 38.8153 14.2301 38.8867 14.2536 38.9577C14.3246 39.1236 14.4435 39.2895 14.562 39.408C14.7039 39.5264 14.8463 39.6453 15.0123 39.7163C15.0833 39.7638 15.1547 39.7873 15.2257 39.7873C15.2731 39.8112 15.3441 39.8348 15.4155 39.8348H42.4201C42.4911 39.8348 42.5625 39.8112 42.6095 39.7873C42.7045 39.7873 42.7759 39.7638 42.8469 39.7163C43.0128 39.6453 43.1552 39.5264 43.2736 39.408C43.4156 39.266 43.5106 39.1236 43.6055 38.9577C43.629 38.8867 43.653 38.8153 43.6765 38.7443C43.7004 38.6733 43.7004 38.6019 43.7004 38.5544V27.4824L32.2725 30.5884C32.2965 30.6598 32.32 30.7308 32.3435 30.7783C32.3675 30.9203 32.391 31.0627 32.391 31.2286V32.0347C32.391 32.1771 32.3675 32.3191 32.3435 32.4615C32.2965 32.58 32.2725 32.6984 32.2015 32.8408C32.1066 33.0542 31.9407 33.2676 31.7508 33.4575C31.5849 33.6469 31.3715 33.7893 31.1346 33.9078C31.0161 33.9552 30.8737 34.0027 30.7553 34.0262C30.6129 34.0737 30.4709 34.0972 30.3285 34.0972H27.5308C27.3884 34.0972 27.2464 34.0737 27.104 34.0262C26.9616 34.0027 26.8432 33.9552 26.7247 33.8838C26.4878 33.7893 26.2744 33.6234 26.1085 33.4335C25.9186 33.2676 25.7762 33.0542 25.6817 32.8173C25.6103 32.6984 25.5628 32.58 25.5393 32.438C25.5158 32.2956 25.4918 32.1532 25.4918 32.0347V31.2286C25.4918 31.0862 25.5158 30.9442 25.5393 30.8018C25.5628 30.7308 25.5867 30.6598 25.6103 30.5884L14.1587 27.4589L14.1587 38.5544ZM45.4303 39.1471C45.3828 39.3605 45.3118 39.5504 45.2404 39.7163C45.0745 40.0721 44.8376 40.4039 44.5532 40.6883C44.2684 40.9492 43.9605 41.1861 43.6047 41.352C43.4148 41.447 43.2254 41.4944 43.0355 41.5419C42.8221 41.5894 42.6327 41.6368 42.4193 41.6368H15.4147C15.2013 41.6368 15.0115 41.5894 14.7981 41.5419C14.6086 41.4944 14.4188 41.447 14.2293 41.352C13.897 41.1861 13.5652 40.9492 13.2808 40.6648C13.0199 40.4039 12.783 40.0721 12.6171 39.7163C12.5457 39.5264 12.4747 39.337 12.4272 39.1471C12.3798 38.9577 12.3562 38.7443 12.3562 38.5544V22.2433C12.3562 22.0299 12.3798 21.8165 12.4272 21.627C12.4747 21.4372 12.5457 21.2473 12.6171 21.0579C12.783 20.7021 13.0199 20.3942 13.2808 20.1094C13.5652 19.825 13.897 19.6116 14.2293 19.4457C14.4187 19.3507 14.6086 19.2797 14.7981 19.2558C15.0115 19.2087 15.2013 19.1848 15.4147 19.1848H21.9106V18.2602C21.9106 18.0943 21.9345 17.9519 21.958 17.786C21.982 17.6436 22.0294 17.5016 22.1004 17.3831C22.2189 17.1223 22.3848 16.8849 22.5747 16.6955C22.7881 16.4821 23.025 16.3162 23.2623 16.1977C23.4043 16.1502 23.5467 16.1028 23.6652 16.0553C23.8311 16.0314 23.9735 16.0078 24.1394 16.0078H33.6943C33.8602 16.0078 34.0022 16.0314 34.1681 16.0553C34.287 16.1028 34.4289 16.1502 34.5713 16.1977C34.8083 16.3162 35.0456 16.4821 35.259 16.6955C35.4484 16.8849 35.6383 17.1223 35.7568 17.3592C35.8042 17.5016 35.8517 17.6436 35.8992 17.786C35.9227 17.9284 35.9466 18.0943 35.9466 18.2602V19.1848H42.419C42.6324 19.1848 42.8219 19.2087 43.0353 19.2558C43.2251 19.2797 43.4146 19.3507 43.6045 19.4457C43.9363 19.5881 44.2682 19.825 44.553 20.1094C44.8373 20.3702 45.0743 20.7021 45.2167 21.0579C45.3116 21.2238 45.3826 21.4137 45.4301 21.6271C45.4775 21.8165 45.5011 22.0299 45.5011 22.2433V38.5544C45.5011 38.7443 45.4775 38.9577 45.4301 39.1471L45.4303 39.1471ZM34.1927 19.184V18.212C34.1688 18.1885 34.1688 18.1645 34.1688 18.141C34.1217 18.0696 34.0743 17.9986 34.0268 17.9512C33.9793 17.9037 33.9083 17.8562 33.8369 17.8092C33.8134 17.8092 33.7895 17.7852 33.7659 17.7852H24.0927C24.0691 17.7852 24.0452 17.8092 23.9977 17.8092C23.9503 17.8562 23.8793 17.9037 23.8318 17.9512C23.7843 17.9986 23.7369 18.0696 23.6898 18.1171C23.6898 18.1646 23.6898 18.1885 23.6659 18.212V19.1841L34.1927 19.184ZM27.4831 30.9915C27.4595 31.0151 27.4121 31.039 27.3881 31.0625C27.3646 31.11 27.3171 31.1335 27.3171 31.181C27.2936 31.181 27.2936 31.2049 27.2936 31.2049V32.0346C27.2936 32.0346 27.2936 32.0585 27.3171 32.0585C27.3407 32.1056 27.3646 32.153 27.3881 32.2005C27.4356 32.2244 27.4595 32.248 27.507 32.2715H27.5305V32.2954H30.3282V32.2715H30.3517C30.3992 32.248 30.4467 32.2244 30.4941 32.177C30.5181 32.153 30.5416 32.1056 30.5651 32.0585C30.5891 32.0346 30.5891 32.0346 30.5891 32.011V31.181C30.5651 31.1575 30.5181 31.11 30.4941 31.0861C30.4467 31.039 30.4231 31.0151 30.3757 30.9915L27.4831 30.9915Z" fill="#26619C"/>
<path fill-rule="evenodd" clip-rule="evenodd" d="M40.0483 3.13395C43.4386 4.53279 46.4257 6.5478 48.939 9.06104C51.4522 11.5743 53.4672 14.5613 54.8661 17.9517C56.2413 21.3186 57 25.0407 57 29C57 32.9591 56.2414 36.6818 54.8661 40.0483C53.4672 43.4386 51.4522 46.4262 48.939 48.939C46.4257 51.4522 43.4387 53.4677 40.0483 54.8665C36.6814 56.2413 32.9593 57 29 57C25.0409 57 21.3182 56.2414 17.9517 54.8665C14.5614 53.4677 11.5738 51.4522 9.06061 48.939C6.5478 46.4262 4.53236 43.4387 3.13352 40.0483C1.75867 36.6819 1 32.9593 1 29C1 25.0405 1.75864 21.3182 3.13352 17.9517C4.53236 14.5614 6.5478 11.5743 9.06061 9.06104C11.5738 6.5478 14.5613 4.53279 17.9517 3.13395C21.3181 1.75867 25.0407 1 29 1C32.9595 1 36.6818 1.75864 40.0483 3.13395ZM39.3842 53.1825C42.514 51.9026 45.3352 50.0055 47.6825 47.6822C50.0059 45.3349 51.9025 42.5138 53.1828 39.3843C54.4867 36.2073 55.1983 32.7221 55.1983 28.9999C55.1983 25.2773 54.4867 21.7925 53.1828 18.6155C51.9025 15.4857 50.0059 12.6645 47.6825 10.3172C45.3352 7.99384 42.5141 6.09722 39.3842 4.8169C36.2072 3.51302 32.7224 2.80145 28.9998 2.80145C25.2777 2.80145 21.7924 3.51304 18.6154 4.8169C15.4859 6.09722 12.6648 7.99384 10.3175 10.3172C7.99419 12.6645 6.09714 15.4856 4.81724 18.6155C3.51293 21.7925 2.80179 25.2773 2.80179 28.9999C2.80179 32.7221 3.51296 36.2073 4.81724 39.3843C6.09714 42.5138 7.99419 45.3349 10.3175 47.6822C12.6648 50.0055 15.4859 51.9026 18.6154 53.1825C21.7924 54.4868 25.2777 55.1979 28.9998 55.1979C32.7224 55.1979 36.2072 54.4867 39.3842 53.1825Z" stroke="white" stroke-width="0.2"/>
<path fill-rule="evenodd" clip-rule="evenodd" d="M15.2257 21.0098C15.1307 21.0098 15.0597 21.0334 14.9888 21.0808C14.8464 21.1522 14.6804 21.2468 14.562 21.3892C14.4435 21.5076 14.3246 21.65 14.2536 21.8159C14.2301 21.8869 14.2062 21.9583 14.1826 22.0293C14.1587 22.1003 14.1587 22.1717 14.1587 22.2427V25.5856L27.2932 29.1894H30.5886L43.6995 25.6096V22.2427C43.6995 22.1717 43.6995 22.1003 43.6755 22.0293C43.652 21.9583 43.6281 21.8869 43.6045 21.8159C43.5335 21.65 43.4147 21.5076 43.2962 21.3892C43.1542 21.2468 43.0118 21.1522 42.8459 21.0808C42.7749 21.0334 42.7035 21.0098 42.6325 21.0098C42.5615 20.9863 42.4901 20.9863 42.4191 20.9863H15.4146C15.3432 20.9863 15.2722 20.9863 15.2247 21.0098H15.2257ZM14.1587 38.5544C14.1587 38.6019 14.1587 38.6733 14.1826 38.7443C14.2062 38.8153 14.2301 38.8867 14.2536 38.9577C14.3246 39.1236 14.4435 39.2895 14.562 39.408C14.7039 39.5264 14.8463 39.6453 15.0123 39.7163C15.0833 39.7638 15.1547 39.7873 15.2257 39.7873C15.2731 39.8112 15.3441 39.8348 15.4155 39.8348H42.4201C42.4911 39.8348 42.5625 39.8112 42.6095 39.7873C42.7045 39.7873 42.7759 39.7638 42.8469 39.7163C43.0128 39.6453 43.1552 39.5264 43.2736 39.408C43.4156 39.266 43.5106 39.1236 43.6055 38.9577C43.629 38.8867 43.653 38.8153 43.6765 38.7443C43.7004 38.6733 43.7004 38.6019 43.7004 38.5544V27.4824L32.2725 30.5884C32.2965 30.6598 32.32 30.7308 32.3435 30.7783C32.3675 30.9203 32.391 31.0627 32.391 31.2286V32.0347C32.391 32.1771 32.3675 32.3191 32.3435 32.4615C32.2965 32.58 32.2725 32.6984 32.2015 32.8408C32.1066 33.0542 31.9407 33.2676 31.7508 33.4575C31.5849 33.6469 31.3715 33.7893 31.1346 33.9078C31.0161 33.9552 30.8737 34.0027 30.7553 34.0262C30.6129 34.0737 30.4709 34.0972 30.3285 34.0972H27.5308C27.3884 34.0972 27.2464 34.0737 27.104 34.0262C26.9616 34.0027 26.8432 33.9552 26.7247 33.8838C26.4878 33.7893 26.2744 33.6234 26.1085 33.4335C25.9186 33.2676 25.7762 33.0542 25.6817 32.8173C25.6103 32.6984 25.5628 32.58 25.5393 32.438C25.5158 32.2956 25.4918 32.1532 25.4918 32.0347V31.2286C25.4918 31.0862 25.5158 30.9442 25.5393 30.8018C25.5628 30.7308 25.5867 30.6598 25.6103 30.5884L14.1587 27.4589L14.1587 38.5544ZM45.4303 39.1471C45.3828 39.3605 45.3118 39.5504 45.2404 39.7163C45.0745 40.0721 44.8376 40.4039 44.5532 40.6883C44.2684 40.9492 43.9605 41.1861 43.6047 41.352C43.4148 41.447 43.2254 41.4944 43.0355 41.5419C42.8221 41.5894 42.6327 41.6368 42.4193 41.6368H15.4147C15.2013 41.6368 15.0115 41.5894 14.7981 41.5419C14.6086 41.4944 14.4188 41.447 14.2293 41.352C13.897 41.1861 13.5652 40.9492 13.2808 40.6648C13.0199 40.4039 12.783 40.0721 12.6171 39.7163C12.5457 39.5264 12.4747 39.337 12.4272 39.1471C12.3798 38.9577 12.3562 38.7443 12.3562 38.5544V22.2433C12.3562 22.0299 12.3798 21.8165 12.4272 21.627C12.4747 21.4372 12.5457 21.2473 12.6171 21.0579C12.783 20.7021 13.0199 20.3942 13.2808 20.1094C13.5652 19.825 13.897 19.6116 14.2293 19.4457C14.4187 19.3507 14.6086 19.2797 14.7981 19.2558C15.0115 19.2087 15.2013 19.1848 15.4147 19.1848H21.9106V18.2602C21.9106 18.0943 21.9345 17.9519 21.958 17.786C21.982 17.6436 22.0294 17.5016 22.1004 17.3831C22.2189 17.1223 22.3848 16.8849 22.5747 16.6955C22.7881 16.4821 23.025 16.3162 23.2623 16.1977C23.4043 16.1502 23.5467 16.1028 23.6652 16.0553C23.8311 16.0314 23.9735 16.0078 24.1394 16.0078H33.6943C33.8602 16.0078 34.0022 16.0314 34.1681 16.0553C34.287 16.1028 34.4289 16.1502 34.5713 16.1977C34.8083 16.3162 35.0456 16.4821 35.259 16.6955C35.4484 16.8849 35.6383 17.1223 35.7568 17.3592C35.8042 17.5016 35.8517 17.6436 35.8992 17.786C35.9227 17.9284 35.9466 18.0943 35.9466 18.2602V19.1848H42.419C42.6324 19.1848 42.8219 19.2087 43.0353 19.2558C43.2251 19.2797 43.4146 19.3507 43.6045 19.4457C43.9363 19.5881 44.2682 19.825 44.553 20.1094C44.8373 20.3702 45.0743 20.7021 45.2167 21.0579C45.3116 21.2238 45.3826 21.4137 45.4301 21.6271C45.4775 21.8165 45.5011 22.0299 45.5011 22.2433V38.5544C45.5011 38.7443 45.4775 38.9577 45.4301 39.1471L45.4303 39.1471ZM34.1927 19.184V18.212C34.1688 18.1885 34.1688 18.1645 34.1688 18.141C34.1217 18.0696 34.0743 17.9986 34.0268 17.9512C33.9793 17.9037 33.9083 17.8562 33.8369 17.8092C33.8134 17.8092 33.7895 17.7852 33.7659 17.7852H24.0927C24.0691 17.7852 24.0452 17.8092 23.9977 17.8092C23.9503 17.8562 23.8793 17.9037 23.8318 17.9512C23.7843 17.9986 23.7369 18.0696 23.6898 18.1171C23.6898 18.1646 23.6898 18.1885 23.6659 18.212V19.1841L34.1927 19.184ZM27.4831 30.9915C27.4595 31.0151 27.4121 31.039 27.3881 31.0625C27.3646 31.11 27.3171 31.1335 27.3171 31.181C27.2936 31.181 27.2936 31.2049 27.2936 31.2049V32.0346C27.2936 32.0346 27.2936 32.0585 27.3171 32.0585C27.3407 32.1056 27.3646 32.153 27.3881 32.2005C27.4356 32.2244 27.4595 32.248 27.507 32.2715H27.5305V32.2954H30.3282V32.2715H30.3517C30.3992 32.248 30.4467 32.2244 30.4941 32.177C30.5181 32.153 30.5416 32.1056 30.5651 32.0585C30.5891 32.0346 30.5891 32.0346 30.5891 32.011V31.181C30.5651 31.1575 30.5181 31.11 30.4941 31.0861C30.4467 31.039 30.4231 31.0151 30.3757 30.9915L27.4831 30.9915Z" stroke="white" stroke-width="0.2"/>
</svg>
