<svg width="58" height="56" viewBox="0 0 58 56" fill="none" xmlns="http://www.w3.org/2000/svg">
<path d="M56.1556 0.903906C55.1024 -0.0321202 53.581 -0.266026 52.1768 0.31894L39.4213 6.28696C37.5488 7.10623 35.9107 8.39332 34.5064 9.79756L31.464 12.9571L28.0706 9.56365C27.7195 9.21259 27.2513 9.09544 26.7835 9.32975L1.62354 19.6268C0.921418 19.9779 0.687512 21.0311 1.27248 21.616L12.389 32.7326L9.81447 35.4239C9.69732 35.5411 9.58056 35.775 9.46341 36.0089L7.82526 45.3704C7.70811 45.7214 7.82526 46.1896 8.17632 46.4235L8.52738 46.7754L4.78288 50.286C4.31466 50.7542 4.31466 51.4563 4.78288 51.9241C5.25109 52.3923 5.95321 52.3923 6.42102 51.9241L10.1655 48.2964L10.6337 48.7646C10.8677 48.9985 11.3359 49.1157 11.6869 49.1157C11.9208 49.1157 21.0484 47.4775 21.2827 47.3604C21.3999 47.3604 21.5166 47.2432 21.7509 47.1265L24.4422 44.5519L35.5588 55.6684C36.1438 56.2534 37.197 56.0195 37.4313 55.3174L47.7294 30.2758C47.9633 29.8076 47.8465 29.3397 47.4954 28.9887L44.102 25.5952L47.2615 22.5529C48.7829 21.1486 49.9529 19.5105 50.7721 17.638L56.7402 4.8825C57.3247 3.47786 57.0908 1.95646 56.1548 0.903284L56.1556 0.903906ZM4.19871 21.149L26.9003 11.7876L29.8259 14.7132L14.0282 30.9783L4.19871 21.149ZM11.922 46.8928L10.1667 45.1375L11.3371 38.5845L18.4754 45.7228L11.922 46.8928ZM35.9105 52.8608L26.0808 43.0311L42.3469 27.2334L45.2725 30.159L35.9105 52.8608ZM54.634 3.82974L48.666 16.5853C47.9639 18.2234 46.9107 19.6276 45.6236 20.798C40.3577 25.83 44.6876 21.6173 20.932 44.7874C13.9108 37.7662 15.7833 39.6387 12.2727 36.1281C35.3253 12.3723 31.1126 16.7024 36.1448 11.4365C37.3151 10.1494 38.7193 9.09624 40.3575 8.39412L53.113 2.4261C53.5812 2.1922 54.1662 2.1922 54.4001 2.54326C54.7512 2.89432 54.8679 3.36214 54.634 3.83034V3.82974Z" fill="#26619C"/>
<path d="M42.0812 9.77953C39.2727 9.77953 37.0492 12.003 37.0492 14.8115C37.0492 17.62 39.2727 19.8435 42.0812 19.8435C44.8896 19.8435 47.1132 17.62 47.1132 14.8115C47.1128 12.003 44.8896 9.77953 42.0812 9.77953ZM42.0812 17.5028C40.5598 17.5028 39.3898 16.3325 39.3898 14.8115C39.3898 13.2901 40.5602 12.1202 42.0812 12.1202C43.6026 12.1202 44.7725 13.2905 44.7725 14.8115C44.7725 16.3329 43.6022 17.5028 42.0812 17.5028Z" fill="#26619C"/>
</svg>
