<svg width="56" height="56" viewBox="0 0 56 56" fill="none" xmlns="http://www.w3.org/2000/svg">
<path d="M48.0678 40.9091L44.3344 38.7537C44.0456 38.5866 43.6898 38.5866 43.401 38.7537L39.6675 40.9091C39.3788 41.0758 39.2008 41.3837 39.2008 41.7175V46.0303V46.0299C39.2008 46.3637 39.3788 46.6717 39.6675 46.8384L43.401 48.9937C43.6898 49.1608 44.0456 49.1608 44.3344 48.9937L48.0678 46.8384C48.3566 46.6717 48.5345 46.3637 48.5345 46.0299V41.7175C48.5345 41.3837 48.3566 41.0758 48.0678 40.9091ZM46.6678 45.4906L43.8677 47.1075L41.0676 45.4906V42.2568L43.8677 40.6399L46.6678 42.2568V45.4906Z" fill="#26619C"/>
<path d="M43.8682 35.4725C41.6402 35.4725 39.5035 36.3576 37.9284 37.9332C36.3529 39.5085 35.4679 41.6455 35.4679 43.8738C35.4679 46.1021 36.353 48.2391 37.9284 49.8144C39.5035 51.3901 41.6402 52.2752 43.8682 52.2752C46.0962 52.2752 48.233 51.39 49.8081 49.8144C51.3836 48.2391 52.2685 46.1021 52.2685 43.8738C52.266 41.6464 51.3801 39.511 49.8055 37.9358C48.2304 36.3609 46.0954 35.475 43.8682 35.4725ZM43.8682 50.4082C42.1352 50.4082 40.4735 49.7198 39.2484 48.4942C38.023 47.269 37.3346 45.6071 37.3346 43.8738C37.3346 42.1405 38.023 40.4787 39.2484 39.2534C40.4734 38.0279 42.1351 37.3394 43.8682 37.3394C45.6013 37.3394 47.2629 38.0279 48.488 39.2534C49.7134 40.4786 50.4018 42.1405 50.4018 43.8738C50.3997 45.6062 49.7109 47.2673 48.4859 48.4921C47.2613 49.7172 45.6003 50.4061 43.8682 50.4082Z" fill="#26619C"/>
<path d="M44.8016 31.7854V0.933486C44.8016 0.685947 44.7032 0.448404 44.5282 0.273378C44.3532 0.098352 44.1157 0 43.8682 0H0.933366C0.417935 0 0 0.417988 0 0.933486V53.2087C0 53.4562 0.0983373 53.6938 0.273343 53.8688C0.448349 54.0438 0.685859 54.1422 0.933366 54.1422H37.4275C40.5838 56.1254 44.4769 56.5459 47.9841 55.2827C51.4909 54.0196 54.2222 51.2133 55.3898 47.6732C56.5573 44.1325 56.0319 40.252 53.9644 37.1497C51.8972 34.048 48.5179 32.0693 44.8012 31.7851L44.8016 31.7854ZM41.619 1.86697L39.7522 3.73394H5.04914L3.18241 1.86697H41.619ZM42.9348 3.18303V31.785C42.3061 31.8338 41.6819 31.9305 41.0681 32.0742V5.05009L42.9348 3.18303ZM28.9344 44.8069C28.4189 44.8069 28.001 45.2249 28.001 45.7404V48.5408H17.734V45.7404C17.734 45.2249 17.316 44.8069 16.8006 44.8069C16.2852 44.8069 15.8672 45.2249 15.8672 45.7404V48.5408H11.2004V44.8069C11.2021 43.237 11.7692 41.7201 12.7976 40.5336C13.8259 39.3476 15.2468 38.5712 16.8006 38.3471V42.0064C16.8006 42.254 16.8989 42.4915 17.0739 42.6665C17.2489 42.8416 17.4865 42.9399 17.734 42.9399C17.8523 42.9416 17.9698 42.9195 18.0794 42.8745L22.4008 41.1475L26.7223 42.8745C26.8318 42.9195 26.9493 42.9416 27.0677 42.9399C27.3152 42.9399 27.5527 42.8416 27.7277 42.6665C27.9027 42.4915 28.0011 42.254 28.0011 42.0064V38.3471C28.449 38.41 28.8898 38.5162 29.3169 38.6646C29.3357 38.6738 29.3449 38.6834 29.3636 38.6925C30.4644 39.1043 31.4325 39.8077 32.1637 40.7274C31.8825 41.7526 31.7379 42.8102 31.7345 43.8733C31.7345 45.4757 32.052 47.0618 32.6679 48.5407H29.8678V45.7403C29.8678 45.4928 29.7695 45.2552 29.5945 45.0802C29.4194 44.9052 29.1819 44.8068 28.9344 44.8068L28.9344 44.8069ZM20.5341 36.9564V35.2012C21.7524 35.562 23.0491 35.562 24.2675 35.2012V36.956L22.4008 38.823L20.5341 36.9564ZM20.7395 39.7944L18.6673 40.625V38.2725H19.2182L20.7395 39.7944ZM25.5834 38.2725H26.1342V40.625L24.0621 39.794L25.5834 38.2725ZM22.4008 33.6051C21.1632 33.6051 19.9762 33.1133 19.1006 32.2382C18.2256 31.3627 17.7339 30.1754 17.7339 28.9376V26.1372H20.8516C22.0899 26.1401 23.2792 25.6496 24.1555 24.7745L24.2676 24.6532L24.3797 24.7745C25.1055 25.4996 26.0501 25.9655 27.0677 26.0997V28.9377C27.0677 30.1755 26.576 31.3627 25.701 32.2383C24.8256 33.1135 23.6384 33.6052 22.4008 33.6052L22.4008 33.6051ZM26.1342 34.296C27.886 33.0737 28.9315 31.0738 28.9343 28.9376V25.2036C28.9343 24.9561 28.836 24.7186 28.661 24.5435C28.486 24.3685 28.2485 24.2702 28.001 24.2702H27.6835C26.9405 24.2739 26.2268 23.978 25.705 23.4488L24.9304 22.6741H24.93C24.5558 22.3286 23.9791 22.3286 23.605 22.6741L22.8303 23.4488H22.8299C22.3082 23.978 21.5945 24.2739 20.8515 24.2702H16.8005C16.2851 24.2702 15.8671 24.6881 15.8671 25.2036V28.9376C15.87 31.0737 16.9155 33.0737 18.6672 34.296V36.4055H17.7339C16.9509 36.4088 16.1721 36.5184 15.4192 36.7322C14.4988 35.579 13.9984 34.1472 14.0004 32.6716V25.4929C13.9662 23.3317 14.7508 21.2376 16.1963 19.6312C17.6418 18.0243 19.6414 17.0237 21.794 16.8303C24.1204 16.6619 26.4117 17.4683 28.1201 19.0565C29.8281 20.6442 30.7994 22.8713 30.8011 25.2037V32.6716C30.8019 34.1497 30.3019 35.5846 29.3823 36.7414C28.6301 36.5217 27.851 36.4084 27.0676 36.4055H26.1343L26.1342 34.296ZM31.1556 37.4699C32.1415 36.0642 32.6698 34.3885 32.6678 32.6715V25.2036C32.6695 22.352 31.4844 19.6277 29.3969 17.6849C27.3093 15.7425 24.5075 14.7561 21.6632 14.9631C19.0398 15.1928 16.6001 16.4055 14.833 18.3583C13.0659 20.3107 12.1017 22.8594 12.1337 25.4928V32.6714C12.1317 34.3884 12.66 36.0641 13.6459 37.4697C12.34 38.199 11.2521 39.2633 10.4945 40.5531C9.73659 41.8425 9.33578 43.3107 9.33364 44.8067V48.5407H5.60018V21.9358L12.6938 16.6149C12.9271 16.4374 13.065 16.1615 13.0671 15.8681V12.8998C13.9042 12.6039 14.5513 11.9284 14.8114 11.0791C15.071 10.2298 14.9131 9.30793 14.3851 8.59411C13.8568 7.88024 13.0218 7.45888 12.1338 7.45888C11.2459 7.45888 10.4109 7.8802 9.88256 8.59411C9.35462 9.30797 9.1967 10.2298 9.45629 11.0791C9.7163 11.9284 10.3634 12.6039 11.2006 12.8998V15.4014L5.60037 19.6021V5.5998H21.4676V7.6347C20.6305 7.93057 19.9834 8.60611 19.7233 9.45537C19.4637 10.3047 19.6216 11.2265 20.1496 11.9404C20.6779 12.6542 21.5129 13.0756 22.4009 13.0756C23.2888 13.0756 24.1238 12.6543 24.6521 11.9404C25.1801 11.2265 25.338 10.3047 25.0784 9.45537C24.8184 8.60606 24.1713 7.93053 23.3341 7.6347V5.5998H29.8677V13.0677C29.8698 13.3611 30.0077 13.6369 30.241 13.8145L31.8744 15.0372C31.7848 15.3051 31.7377 15.5856 31.7344 15.8682C31.7344 16.6108 32.0294 17.3234 32.5544 17.8484C33.0794 18.3734 33.792 18.6686 34.5344 18.6686C35.2769 18.6686 35.9895 18.3735 36.5144 17.8484C37.0394 17.3233 37.3345 16.6107 37.3345 15.8682C37.3345 15.1256 37.0395 14.4129 36.5144 13.8879C35.9894 13.3629 35.2769 13.0678 34.5344 13.0678C33.9836 13.0707 33.4456 13.2328 32.9852 13.5345L31.7343 12.601V5.59987H39.2013V32.6709C36.4124 33.8449 34.1602 36.0144 32.8823 38.7574C32.3631 38.2569 31.7831 37.8243 31.1555 37.4693L31.1556 37.4699ZM11.2008 10.2676C11.2008 9.88999 11.4283 9.54951 11.7771 9.40533C12.1258 9.26072 12.5271 9.34032 12.7942 9.60744C13.0613 9.87457 13.1409 10.2759 12.9963 10.6247C12.8521 10.9735 12.5117 11.201 12.1342 11.201C11.6187 11.201 11.2008 10.783 11.2008 10.2676ZM22.4012 9.33407C22.7787 9.33407 23.1191 9.5616 23.2633 9.91041C23.4079 10.2592 23.3283 10.6605 23.0612 10.9277C22.7941 11.1948 22.3929 11.2744 22.0441 11.1298C21.6953 10.9856 21.4678 10.6451 21.4678 10.2676C21.4678 9.75205 21.8858 9.33407 22.4012 9.33407ZM33.6016 15.8685C33.6016 15.4909 33.8291 15.1504 34.1779 15.0062C34.5266 14.8616 34.9279 14.9412 35.195 15.2084C35.4621 15.4755 35.5417 15.8768 35.3971 16.2256C35.2529 16.5744 34.9125 16.802 34.535 16.802C34.0195 16.802 33.6016 16.384 33.6016 15.8685ZM1.86714 3.18266L3.73387 5.04963V49.092L1.86714 50.959V3.18266ZM3.18302 52.2744L5.04976 50.4074H33.6577C34.086 51.0775 34.5798 51.7031 35.1327 52.2744H3.18302ZM43.8682 54.1414C41.1452 54.1414 38.5338 53.0595 36.6083 51.1338C34.6828 49.2081 33.6012 46.5965 33.6012 43.873C33.6012 41.1496 34.6829 38.538 36.6083 36.6122C38.5338 34.6865 41.1451 33.6047 43.8682 33.6047C46.5913 33.6047 49.2026 34.6866 51.1281 36.6122C53.0536 38.538 54.1352 41.1496 54.1352 43.873C54.1336 46.5959 53.0514 49.2068 51.1264 51.1321C49.2013 53.0575 46.5907 54.1397 43.8682 54.1414Z" fill="#26619C"/>
</svg>
