<svg width="131" height="28" viewBox="0 0 131 28" fill="none" xmlns="http://www.w3.org/2000/svg">
<g clip-path="url(#clip0_269_2877)">
<path d="M40.9399 4.32922C39.4322 4.32922 37.9676 4.52307 37.3645 4.67384C36.503 4.91076 36.2876 5.29846 36.1153 6.07384L32.7122 21.9046C32.6476 22.2277 32.6045 22.5077 32.6045 22.7661C32.6045 23.5415 33.1214 24.0585 33.9614 24.0585C34.8876 24.0585 35.2537 23.4554 35.4476 22.5508L36.4168 18.0492C37.0845 18.1354 37.9891 18.2215 39.2599 18.2215C44.8599 18.2215 48.3276 15.2061 48.3276 10.64C48.306 6.6123 45.5276 4.32922 40.9399 4.32922ZM39.1091 15.6154C38.2476 15.6154 37.5583 15.5938 36.9553 15.5077L38.7645 7.10768C39.3245 7.02153 40.1645 6.91384 41.026 6.91384C43.9983 6.91384 45.506 8.31384 45.506 10.64C45.506 13.6123 43.3522 15.6154 39.1091 15.6154ZM128.924 18.8461C128.472 18.8461 128.171 19.1261 127.611 19.7292C126.62 20.7631 125.995 21.3231 125.198 21.3231C124.488 21.3231 124.121 20.7631 124.121 19.8369C124.121 19.32 124.229 18.6954 124.358 18.0277L125.349 13.3323H128.343C129.291 13.3323 129.851 12.7938 129.851 11.8246C129.851 11.2861 129.506 10.8769 128.688 10.8769H125.866L126.361 8.67999C126.426 8.35691 126.469 8.05538 126.469 7.79692C126.469 7.04307 125.952 6.50461 125.112 6.50461C124.229 6.50461 123.82 7.10769 123.626 8.0123L123.001 10.8769H121.731C120.761 10.8769 120.201 11.4154 120.201 12.3846C120.201 12.9231 120.589 13.3323 121.386 13.3323H122.484L121.494 17.9846C121.386 18.5015 121.257 19.3415 121.257 20.2031C121.257 22.4 122.398 23.9938 124.832 23.9938C126.232 23.9938 127.481 23.2831 128.429 22.4431C129.355 21.6246 130.023 20.6338 130.023 19.9877C130.044 19.3631 129.549 18.8461 128.924 18.8461ZM66.8076 5.92307C66.8076 5.14768 66.2691 4.63076 65.4291 4.63076C64.546 4.63076 64.1368 5.23384 63.943 6.13845L60.5614 21.8184C60.4753 22.1415 60.4322 22.4215 60.4322 22.68C60.4322 23.4554 60.9706 23.9723 61.7891 23.9723C62.7153 23.9723 63.103 23.3692 63.2968 22.4646L66.6783 6.78461C66.7214 6.46153 66.8076 6.18153 66.8076 5.92307ZM115.011 10.6184C110.681 10.6184 107.752 14.9046 107.752 18.9969C107.752 19.0831 107.752 19.1477 107.752 19.2338C107.085 20.2677 106.201 21.3231 105.62 21.3231C105.189 21.3231 105.017 20.9138 105.017 20.2892C105.017 19.5354 105.232 18.2646 105.469 17.1661L107.709 6.78461C107.774 6.46153 107.817 6.18153 107.817 5.92307C107.817 5.14768 107.3 4.63076 106.46 4.63076C105.534 4.63076 105.168 5.23384 104.974 6.13845L103.768 11.76C103.121 11.0923 102.174 10.6184 100.752 10.6184C97.8876 10.6184 95.0014 12.8369 93.8814 16.2184C92.6322 19.4277 91.5337 21.3231 90.6507 21.3231C90.3276 21.3231 90.1337 21.0431 90.1337 20.5908C90.1337 19.2338 90.8876 15.9385 91.2107 14.3446C91.3183 13.7415 91.383 13.5046 91.383 13.16C91.383 11.9754 89.4014 10.5754 86.8383 10.5754C83.866 10.5754 81.1737 12.4492 79.8383 15.2492C77.8353 18.7815 76.0045 21.3231 75.0999 21.3231C74.6906 21.3231 74.5614 20.8061 74.4537 20.3323L73.786 16.6061L77.9214 13.2246C78.3091 12.9015 78.783 12.4492 78.783 11.8461C78.783 11.1138 78.2876 10.64 77.5768 10.64C77.0383 10.64 76.586 10.9631 76.1122 11.3508L69.9091 16.4769L71.9983 6.80615C72.063 6.48307 72.1276 6.20307 72.1276 5.94461C72.1276 5.16922 71.5891 4.6523 70.7491 4.6523C69.866 4.6523 69.4568 5.25538 69.263 6.15999L65.8814 21.84C65.7953 22.1631 65.7522 22.4431 65.7522 22.7015C65.7522 23.4769 66.2907 23.9938 67.1091 23.9938C68.0353 23.9938 68.423 23.3908 68.6168 22.4861L69.0476 20.4615L71.5891 18.4154L72.2137 21.5385C72.4506 22.7877 73.0968 23.9938 74.7768 23.9938C76.4353 23.9938 77.7491 22.4646 79.063 20.4184C79.4507 22.5723 81.0014 23.9938 83.1122 23.9938C85.2445 23.9938 86.7091 22.7231 87.6568 21.0215V21.0861C87.6568 22.8523 88.5399 23.9938 90.1122 23.9938C91.5337 23.9938 92.6968 23.1323 93.7522 21.3231C94.3553 22.8954 95.6907 23.9938 97.543 23.9938C99.7399 23.9938 101.291 22.68 102.303 20.8277V21C102.303 22.9384 103.272 23.9938 104.866 23.9938C106.266 23.9938 107.472 23.1754 108.484 21.84C109.26 23.1754 110.66 23.9938 112.534 23.9938C116.863 23.9938 119.792 19.7077 119.792 15.5938C119.771 12.6861 118.026 10.6184 115.011 10.6184ZM88.0876 16.1108C87.3122 19.4923 85.6322 21.4092 83.7368 21.4092C82.466 21.4092 81.7553 20.44 81.7553 18.9754C81.7553 16.1108 83.8445 13.0308 86.623 13.0308C87.463 13.0308 88.1091 13.2677 88.6691 13.6338L88.0876 16.1108ZM103.143 14.6677C102.281 18.6308 100.3 21.3877 98.146 21.3877C96.9614 21.3877 96.2507 20.4615 96.2507 18.9538C96.2507 16.0677 98.2537 13.0738 100.924 13.0738C101.958 13.0738 102.734 13.4185 103.294 13.8923L103.143 14.6677ZM112.835 21.3877C111.263 21.3877 110.617 20.2461 110.617 18.8246C110.617 16.1969 112.426 13.2031 114.688 13.2031C116.26 13.2031 116.906 14.3446 116.906 15.7661C116.906 18.4154 115.097 21.3877 112.835 21.3877ZM55.0476 10.6184C50.7183 10.6184 47.7891 14.9046 47.7891 18.9969C47.7891 21.9046 49.5553 23.9938 52.5491 23.9938C56.8783 23.9938 59.8076 19.7077 59.8076 15.5938C59.786 12.6861 58.0414 10.6184 55.0476 10.6184ZM52.8506 21.3877C51.2783 21.3877 50.6322 20.2461 50.6322 18.8246C50.6322 16.1969 52.4414 13.2031 54.703 13.2031C56.2753 13.2031 56.9214 14.3446 56.9214 15.7661C56.9214 18.4154 55.1122 21.3877 52.8506 21.3877Z" fill="black"/>
<path d="M13.8013 0.193848C16.5582 0.193848 18.7766 1.48616 18.7766 3.10154C18.7766 4.69539 16.5366 6.00923 13.8013 6.00923C11.0659 6.00923 8.82588 4.71692 8.82588 3.10154C8.82588 1.50769 11.0443 0.193848 13.8013 0.193848ZM13.8013 22.0338C16.5582 22.0338 18.7766 23.3262 18.7766 24.9415C18.7766 26.5569 16.5366 27.8492 13.8013 27.8492C11.0659 27.8492 8.82588 26.5569 8.82588 24.9415C8.82588 23.3262 11.0443 22.0338 13.8013 22.0338ZM1.82587 7.10769C3.20434 4.71693 5.44434 3.44616 6.8228 4.24308C8.20126 5.04 8.2228 7.62462 6.84434 10.0154C5.46588 12.4062 3.22587 13.6769 1.84741 12.88C0.468952 12.0831 0.447413 9.49846 1.82587 7.10769ZM20.7366 18.0277C22.1151 15.6369 24.3551 14.3662 25.7336 15.1631C27.112 15.96 27.1336 18.5446 25.7551 20.9354C24.3766 23.3262 22.1366 24.5969 20.7582 23.8C19.3797 23.0031 19.3797 20.4185 20.7366 18.0277ZM1.84741 15.1631C3.22587 14.3662 5.46588 15.6369 6.84434 18.0277C8.2228 20.4185 8.20126 23.0031 6.8228 23.8C5.44434 24.5969 3.20434 23.3262 1.82587 20.9354C0.447413 18.5446 0.468952 15.96 1.84741 15.1631ZM20.7582 4.24308C22.1366 3.44616 24.3766 4.71693 25.7551 7.10769C27.1336 9.49846 27.1336 12.0831 25.7336 12.88C24.3551 13.6769 22.1151 12.4062 20.7366 10.0154C19.3797 7.62462 19.3797 5.04 20.7582 4.24308Z" fill="#E6007A"/>
</g>
<defs>
<clipPath id="clip0_269_2877">
<rect width="130" height="28" fill="white" transform="translate(0.285645)"/>
</clipPath>
</defs>
</svg>
