<svg width="20" height="21" viewBox="0 0 20 21" fill="none" xmlns="http://www.w3.org/2000/svg">
<g clip-path="url(#clip0_329_490)">
<path d="M19.9669 6.02596L11.3374 0.367859V3.53133L16.8733 7.12865L16.222 9.18944H11.3374V11.8106H16.222L16.8733 13.8714L11.3374 17.4687V20.6322L19.9669 14.9922L18.5558 10.5091L19.9669 6.02596Z" fill="url(#paint0_linear_329_490)"/>
<path d="M3.82937 11.8106H8.6959V9.18944H3.81128L3.17809 7.12865L8.6959 3.53133V0.367859L0.0664062 6.02596L1.47752 10.5091L0.0664062 14.9922L8.71398 20.6322V17.4687L3.17809 13.8714L3.82937 11.8106Z" fill="url(#paint1_linear_329_490)"/>
<mask id="mask0_329_490" style="mask-type:alpha" maskUnits="userSpaceOnUse" x="0" y="0" width="20" height="21">
<path d="M19.9669 6.02596L11.3374 0.367859V3.53133L16.8734 7.12865L16.2221 9.18944H11.3374V11.8106H16.2221L16.8734 13.8714L11.3374 17.4687V20.6322L19.9669 14.9922L18.5558 10.5091L19.9669 6.02596Z" fill="url(#paint2_linear_329_490)"/>
<path d="M3.82937 11.8106H8.69589V9.18944H3.81128L3.17809 7.12865L8.69589 3.53133V0.367859L0.0664062 6.02596L1.47752 10.5091L0.0664062 14.9922L8.71399 20.6322V17.4687L3.17809 13.8714L3.82937 11.8106Z" fill="url(#paint3_linear_329_490)"/>
</mask>
<g mask="url(#mask0_329_490)">
<path d="M19.8349 0.367859H0.0771484V20.6322H19.8349V0.367859Z" fill="url(#paint4_linear_329_490)"/>
</g>
</g>
<defs>
<linearGradient id="paint0_linear_329_490" x1="17.1753" y1="22.0254" x2="11.3948" y2="-1.85756" gradientUnits="userSpaceOnUse">
<stop stop-color="#0B46F9"/>
<stop offset="1" stop-color="#BBFBE0"/>
</linearGradient>
<linearGradient id="paint1_linear_329_490" x1="17.1751" y1="22.0254" x2="11.3947" y2="-1.85756" gradientUnits="userSpaceOnUse">
<stop stop-color="#0B46F9"/>
<stop offset="1" stop-color="#BBFBE0"/>
</linearGradient>
<linearGradient id="paint2_linear_329_490" x1="17.1753" y1="22.0254" x2="11.3948" y2="-1.85756" gradientUnits="userSpaceOnUse">
<stop stop-color="#0B46F9"/>
<stop offset="1" stop-color="#BBFBE0"/>
</linearGradient>
<linearGradient id="paint3_linear_329_490" x1="17.1751" y1="22.0254" x2="11.3946" y2="-1.85756" gradientUnits="userSpaceOnUse">
<stop stop-color="#0B46F9"/>
<stop offset="1" stop-color="#BBFBE0"/>
</linearGradient>
<linearGradient id="paint4_linear_329_490" x1="1.34367" y1="4.92733" x2="11.3492" y2="12.3998" gradientUnits="userSpaceOnUse">
<stop offset="0.119792" stop-color="#8952FF" stop-opacity="0.87"/>
<stop offset="1" stop-color="#DABDFF" stop-opacity="0"/>
</linearGradient>
<clipPath id="clip0_329_490">
<rect width="20" height="20.2643" fill="white" transform="translate(0 0.367859)"/>
</clipPath>
</defs>
</svg>
