<svg width="152" height="28" viewBox="0 0 152 28" fill="none" xmlns="http://www.w3.org/2000/svg">
<g clip-path="url(#clip0_269_2880)">
<path d="M51.7806 15.335H57.4285C58.2226 15.335 58.8661 15.9853 58.8661 16.7795C58.8661 17.5804 58.2226 18.224 57.4285 18.224H50.6168C50.5072 18.224 50.4045 18.265 50.3292 18.3335L48.2754 20.1066C47.9605 20.3804 48.1522 20.8939 48.563 20.8939H57.0862C57.0862 20.8939 57.093 20.8939 57.093 20.887C57.093 20.8802 57.0999 20.8802 57.0999 20.8802C57.2094 20.887 57.3121 20.8939 57.4216 20.8939C59.6808 20.8939 61.5155 19.0523 61.5155 16.7795C61.5155 14.623 59.8657 12.8499 57.7571 12.6787C57.7571 12.6787 57.7503 12.6787 57.7503 12.6719C57.7503 12.665 57.7503 12.665 57.7434 12.665H51.6642C50.8701 12.665 50.2265 12.0147 50.2265 11.2205C50.2265 10.4196 50.8701 9.77604 51.6642 9.77604H58.4622C58.5718 9.77604 58.6813 9.73496 58.7635 9.65965L60.6735 7.88655C60.9747 7.60586 60.7762 7.10611 60.3723 7.10611H51.7806C51.7463 7.10611 51.7053 7.10611 51.671 7.10611C49.4119 7.10611 47.5771 8.94767 47.5771 11.2205C47.5771 13.4934 49.4119 15.335 51.671 15.335C51.7053 15.335 51.7395 15.335 51.7806 15.335Z" fill="black"/>
<path d="M84.6549 7.09925C84.4085 7.09925 84.21 7.29779 84.21 7.55109V20.4489C84.21 20.6953 84.4085 20.9007 84.6549 20.9007H94.9924C95.1156 20.9007 95.232 20.846 95.321 20.757L96.6148 19.3672C96.8818 19.0797 96.6833 18.6073 96.2862 18.6073H87.2633C87.0168 18.6073 86.8183 18.4088 86.8183 18.1555V7.54424C86.8183 7.29779 86.6197 7.09241 86.3733 7.09241H84.6549V7.09925Z" fill="black"/>
<path fill-rule="evenodd" clip-rule="evenodd" d="M68.1017 7.09927C68.1017 7.10612 68.1017 7.10612 68.1017 7.09927C66.7804 7.16089 65.7193 8.22201 65.6577 9.54328V18.2171C65.6577 18.2514 65.6577 18.2924 65.6577 18.3267C65.6577 19.7027 66.7394 20.8254 68.1017 20.8802H77.4807C78.8362 20.8186 79.9247 19.6959 79.9247 18.3267C79.9247 18.2924 79.9247 18.2514 79.9247 18.2171V9.55013C79.8699 8.22886 78.8088 7.16089 77.4875 7.10612H68.1017V7.09927ZM69.8543 9.55013C69.8474 9.55013 69.8474 9.55013 69.8543 9.55013C69.0259 9.58436 68.3619 10.2553 68.3276 11.0905V16.5467C68.3276 16.5672 68.3276 16.5946 68.3276 16.6152C68.3276 17.4778 69.0054 18.1897 69.8543 18.224H75.735C76.5839 18.1897 77.2616 17.4778 77.2616 16.6152C77.2616 16.5946 77.2616 16.5672 77.2616 16.5467V11.0905C77.2274 10.2553 76.5633 9.59121 75.735 9.55013H69.8543Z" fill="black"/>
<path fill-rule="evenodd" clip-rule="evenodd" d="M111.642 20.4489C111.642 20.6953 111.84 20.9007 112.087 20.9007H113.839C114.086 20.9007 114.284 20.7022 114.284 20.4489V9.77603C114.284 9.7418 114.284 9.70072 114.284 9.66649C114.284 8.29045 113.209 7.16771 111.868 7.11295H102.865C102.831 7.11295 102.79 7.11295 102.756 7.11295C101.359 7.11295 100.229 8.25622 100.229 9.67334C100.229 9.70757 100.229 9.74864 100.229 9.78287V20.4557C100.229 20.7022 100.428 20.9076 100.674 20.9076H102.427C102.674 20.9076 102.872 20.709 102.872 20.4557V16.0127C102.872 15.7662 103.071 15.5609 103.317 15.5609H111.217C111.464 15.5609 111.662 15.7594 111.662 16.0127V20.4489H111.642ZM102.858 13.1032V10.8851C102.858 10.0225 103.55 9.32419 104.399 9.32419H110.108C110.957 9.32419 111.649 10.0225 111.649 10.8851V13.1032C111.649 13.3496 111.45 13.555 111.204 13.555H103.303C103.057 13.555 102.858 13.3565 102.858 13.1032Z" fill="black"/>
<path fill-rule="evenodd" clip-rule="evenodd" d="M148.645 20.9007C148.398 20.9007 148.2 20.7022 148.2 20.4489V16.0059C148.2 15.7594 148.001 15.554 147.755 15.554H139.765C139.519 15.554 139.32 15.7526 139.32 16.0059V20.4489C139.32 20.6954 139.122 20.9007 138.875 20.9007H137.109C136.863 20.9007 136.664 20.7022 136.664 20.4489V9.77604C136.664 9.74181 136.664 9.70073 136.664 9.6665C136.664 8.25623 137.807 7.10611 139.218 7.10611C139.252 7.10611 139.293 7.10611 139.327 7.10611H148.425C149.781 7.16772 150.869 8.29046 150.869 9.65966C150.869 9.69389 150.869 9.73496 150.869 9.76919V20.4421C150.869 20.6885 150.671 20.8939 150.424 20.8939H148.645V20.9007ZM139.32 10.8851V13.1032C139.32 13.3496 139.519 13.555 139.765 13.555H147.755C148.001 13.555 148.2 13.3565 148.2 13.1032V10.8851C148.2 10.0225 147.501 9.3242 146.645 9.3242H140.874C140.012 9.3242 139.32 10.0225 139.32 10.8851Z" fill="black"/>
<path d="M120.884 7.09927C121.014 7.09927 121.137 7.15404 121.219 7.25673L129.079 16.6289C129.346 16.9438 129.859 16.7521 129.859 16.3345V7.55111C129.859 7.30465 130.058 7.09927 130.304 7.09927H132.057C132.303 7.09927 132.502 7.29781 132.502 7.55111V20.4489C132.502 20.6954 132.303 20.9007 132.057 20.9007H129.88C129.873 20.9007 129.866 20.8939 129.866 20.887C129.866 20.8802 129.866 20.8802 129.859 20.8734L121.863 11.5697C121.596 11.2548 121.083 11.4533 121.083 11.8641V20.4557C121.083 20.7022 120.884 20.9076 120.638 20.9076H118.871C118.625 20.9076 118.426 20.7091 118.426 20.4557V7.55111C118.426 7.30465 118.625 7.09927 118.871 7.09927H120.884Z" fill="black"/>
<g clip-path="url(#clip1_269_2880)">
<path d="M7.65444 21.3706C7.87003 21.155 8.16647 21.0292 8.48087 21.0292H36.9929C37.5139 21.0292 37.7744 21.658 37.4061 22.0263L31.7738 27.6587C31.5582 27.8742 31.2618 28 30.9473 28H2.43531C1.9143 28 1.65379 27.3712 2.0221 27.0029L7.65444 21.3706Z" fill="url(#paint0_linear_269_2880)"/>
<path d="M7.65444 0.341354C7.87901 0.125762 8.17545 0 8.48087 0H36.9929C37.5139 0 37.7744 0.62881 37.4061 0.997113L31.7738 6.62945C31.5582 6.84504 31.2618 6.9708 30.9473 6.9708H2.43531C1.9143 6.9708 1.65379 6.34199 2.0221 5.97369L7.65444 0.341354Z" fill="url(#paint1_linear_269_2880)"/>
<path d="M31.7738 10.7886C31.5582 10.573 31.2618 10.4472 30.9473 10.4472H2.43531C1.9143 10.4472 1.65379 11.076 2.0221 11.4443L7.65444 17.0767C7.87003 17.2923 8.16647 17.418 8.48087 17.418H36.9929C37.5139 17.418 37.7744 16.7892 37.4061 16.4209L31.7738 10.7886Z" fill="url(#paint2_linear_269_2880)"/>
</g>
</g>
<defs>
<linearGradient id="paint0_linear_269_2880" x1="34.2692" y1="-3.3646" x2="14.5366" y2="34.4313" gradientUnits="userSpaceOnUse">
<stop stop-color="#00FFA3"/>
<stop offset="1" stop-color="#DC1FFF"/>
</linearGradient>
<linearGradient id="paint1_linear_269_2880" x1="25.641" y1="-7.86923" x2="5.90841" y2="29.9266" gradientUnits="userSpaceOnUse">
<stop stop-color="#00FFA3"/>
<stop offset="1" stop-color="#DC1FFF"/>
</linearGradient>
<linearGradient id="paint2_linear_269_2880" x1="29.9276" y1="-5.63125" x2="10.195" y2="32.1646" gradientUnits="userSpaceOnUse">
<stop stop-color="#00FFA3"/>
<stop offset="1" stop-color="#DC1FFF"/>
</linearGradient>
<clipPath id="clip0_269_2880">
<rect width="151" height="28" fill="white" transform="translate(0.142578)"/>
</clipPath>
<clipPath id="clip1_269_2880">
<rect width="36.75" height="28" fill="white" transform="translate(0.976562)"/>
</clipPath>
</defs>
</svg>
