<svg width="94" height="28" viewBox="0 0 94 28" fill="none" xmlns="http://www.w3.org/2000/svg">
<g clip-path="url(#clip0_269_2891)">
<path d="M37.9602 11.0805H36.4004V21.2652H37.9602V11.0805Z" fill="#262729"/>
<path d="M44.9481 6.76636H32.2339V8.32621H44.9481V6.76636Z" fill="#262729"/>
<path d="M40.7781 11.0805H39.2183V21.2652H40.7781V11.0805Z" fill="#262729"/>
<path d="M83.8706 21.2758H85.4445V15.1418L83.8706 13.3922V21.2758Z" fill="#262729"/>
<path d="M92.1581 6.76636V18.1385L81.0249 5.76511V21.2758H82.5953V9.90011L93.7356 22.277V6.76636H92.1581Z" fill="#262729"/>
<path d="M70.8333 6.75934C66.8318 6.75934 63.5786 10.0125 63.5786 14.014C63.5786 18.0155 66.8318 21.2687 70.8333 21.2687C74.8348 21.2687 78.088 18.0155 78.088 14.014C78.088 10.0161 74.8348 6.75934 70.8333 6.75934ZM70.8333 19.7054C67.6961 19.7054 65.142 17.1548 65.142 14.014C65.142 10.8733 67.6925 8.3227 70.8333 8.3227C73.9706 8.3227 76.5247 10.8733 76.5247 14.014C76.5247 17.1513 73.9706 19.7054 70.8333 19.7054Z" fill="#262729"/>
<path d="M70.8335 12.9706C70.2573 12.9706 69.79 13.4379 69.79 14.0141C69.79 14.5902 70.2573 15.0575 70.8335 15.0575C71.4096 15.0575 71.8769 14.5902 71.8769 14.0141C71.8769 13.4379 71.4096 12.9706 70.8335 12.9706Z" fill="#262729"/>
<path d="M60.8485 11.2175C60.8485 8.76535 58.867 6.76987 56.4324 6.76987H48.1343V21.2793H49.6836V8.34377H56.4324C57.9958 8.34377 59.2675 9.6331 59.2675 11.2175C59.2675 12.795 58.0133 14.0773 56.464 14.0948L50.9589 14.0913V21.2793H52.5082V15.6652H56.1373L59.1024 21.2758H60.9047L57.8096 15.4439C59.5978 14.8502 60.8485 13.1217 60.8485 11.2175Z" fill="#262729"/>
<path d="M21.508 3.89259L0.365723 0.00350952L11.4919 27.9965L26.9921 9.10966L21.508 3.89259ZM21.1707 5.60702L24.4064 8.68105L15.5602 10.2831L21.1707 5.60702ZM13.6385 9.96336L4.31453 2.23086L19.5512 5.03437L13.6385 9.96336ZM12.971 11.3335L11.4533 23.9001L3.25707 3.27076L12.971 11.3335ZM14.3763 11.9975L24.171 10.2233L12.9394 23.9107L14.3763 11.9975Z" fill="#EB0029"/>
</g>
<defs>
<clipPath id="clip0_269_2891">
<rect width="94" height="28" fill="white"/>
</clipPath>
</defs>
</svg>
