<svg width="20" height="18" viewBox="0 0 20 18" fill="none" xmlns="http://www.w3.org/2000/svg">
<path d="M6.2896 17.3333C13.8368 17.3333 17.9648 10.9206 17.9648 5.3595C17.9648 5.17735 17.9648 4.99603 17.9528 4.81553C18.7559 4.2198 19.4491 3.48218 20 2.63721C19.2512 2.9777 18.4567 3.20089 17.6432 3.29932C18.4998 2.77345 19.141 1.94623 19.4472 0.971673C18.6417 1.46191 17.7605 1.80737 16.8416 1.99315C16.2229 1.31847 15.4047 0.871715 14.5135 0.722018C13.6223 0.572321 12.7078 0.728026 11.9116 1.16504C11.1154 1.60205 10.4819 2.29601 10.109 3.13952C9.73605 3.98304 9.64462 4.92908 9.8488 5.83126C8.21741 5.74733 6.62146 5.31252 5.16455 4.55504C3.70763 3.79756 2.4223 2.73435 1.392 1.43441C0.867274 2.36085 0.70656 3.45756 0.942583 4.50124C1.17861 5.54493 1.79362 6.45713 2.6624 7.05211C2.00936 7.03248 1.37054 6.85181 0.8 6.52537V6.5787C0.800259 7.5503 1.12821 8.49191 1.72823 9.2438C2.32824 9.99569 3.16338 10.5116 4.092 10.704C3.4879 10.873 2.85406 10.8977 2.2392 10.7762C2.50151 11.6123 3.01202 12.3435 3.69937 12.8674C4.38671 13.3914 5.21652 13.682 6.0728 13.6987C5.22203 14.3845 4.24776 14.8916 3.20573 15.1909C2.16369 15.4902 1.07435 15.5758 0 15.443C1.87653 16.6779 4.05994 17.333 6.2896 17.33" fill="#1DA1F2"/>
</svg>
