<svg width="24" height="24" viewBox="0 0 24 24" fill="none" xmlns="http://www.w3.org/2000/svg">
<path d="M20.7273 4.3637V3.27268C20.7273 2.40486 20.3825 1.57243 19.7687 0.958616C19.1549 0.344801 18.3225 0 17.4546 0H3.27268C2.40486 0 1.57243 0.344801 0.958616 0.958616C0.344801 1.57243 0 2.40486 0 3.27268V20.7273C0 21.5951 0.344801 22.4276 0.958616 23.0414C1.57243 23.6552 2.40486 24 3.27268 24H20.7273C21.5951 24 22.4276 23.6552 23.0414 23.0414C23.6552 22.4276 24 21.5951 24 20.7273V7.63658C24 6.76857 23.6552 5.93614 23.0414 5.32232C22.4276 4.70869 21.5951 4.36389 20.7273 4.36389V4.3637ZM3.27268 2.18185H17.4546C17.7439 2.18185 18.0213 2.29672 18.2259 2.50145C18.4306 2.70599 18.5455 2.98342 18.5455 3.27268V4.3637H3.27277C2.88305 4.3637 2.52291 4.15569 2.32804 3.81819C2.13318 3.48069 2.13318 3.06486 2.32804 2.72736C2.52291 2.38985 2.88304 2.18185 3.27277 2.18185L3.27268 2.18185ZM20.7273 21.818H3.27268C2.9834 21.818 2.706 21.7031 2.50145 21.4984C2.29673 21.2938 2.18186 21.0164 2.18186 20.7271V6.36005C2.53232 6.48332 2.90124 6.54596 3.27269 6.54541H20.7273C21.0166 6.54541 21.294 6.66046 21.4985 6.86501C21.7033 7.06955 21.8181 7.34698 21.8181 7.63643V10.9091H16.3635C15.1943 10.9091 14.1139 11.5328 13.5293 12.5455C12.9447 13.5579 12.9447 14.8055 13.5293 15.8181C14.1139 16.8306 15.1943 17.4545 16.3635 17.4545H21.8181V20.7272C21.8181 21.0164 21.7033 21.2939 21.4985 21.4984C21.294 21.7031 21.0166 21.818 20.7273 21.818L20.7273 21.818ZM21.8181 15.2726H16.3635C15.9738 15.2726 15.6137 15.0646 15.4188 14.7271C15.2239 14.3896 15.2239 13.9738 15.4188 13.6362C15.6137 13.2987 15.9738 13.0907 16.3635 13.0907H21.8181V15.2726Z" fill="#26619C"/>
</svg>
