<svg width="28" height="34" viewBox="0 0 28 34" fill="none" xmlns="http://www.w3.org/2000/svg">
<g clip-path="url(#clip0_269_4109)">
<path d="M16 33C12.2885 32.999 8.69283 31.708 5.82838 29.348C2.96394 26.9879 1.00888 23.7056 0.297879 20.0629C-0.413123 16.4202 0.164145 12.6437 1.93086 9.37971C3.69758 6.11574 6.54389 3.56735 9.98255 2.17078C12.8987 0.984348 16.1001 0.685021 19.1856 1.31032C22.2711 1.93561 25.1034 3.45772 27.3275 5.68585L27.9732 6.33421L26.6791 7.62825L26.0308 6.98257C24.7163 5.66523 23.1549 4.62009 21.436 3.90699C19.717 3.19389 17.8743 2.82684 16.0134 2.82684C14.1524 2.82684 12.3097 3.19389 10.5908 3.90699C8.87182 4.62009 7.31042 5.66523 5.99595 6.98257C3.68585 9.29475 2.24608 12.3344 1.92058 15.5866C1.59507 18.8388 2.40383 22.1036 4.20985 24.8277C6.01586 27.5519 8.70808 29.5679 11.8304 30.5344C14.9527 31.5008 18.3131 31.3581 21.3422 30.1306C22.8127 29.5348 24.1715 28.6942 25.361 27.6443L23.9437 26.2378C22.1462 27.7839 19.9366 28.772 17.5859 29.0811C15.2351 29.3901 12.8452 29.0065 10.7092 27.9774C8.57318 26.9483 6.78379 25.3184 5.56037 23.2874C4.33695 21.2564 3.73265 18.9127 3.82154 16.5433C3.91042 14.174 4.68863 11.8821 6.06078 9.94846C7.43294 8.01485 9.33941 6.52358 11.5465 5.65742C13.7537 4.79126 16.1655 4.58785 18.4866 5.07212C20.8076 5.55639 22.9369 6.70729 24.6135 8.38378L25.2619 9.03749L21.2699 13.0268L20.6296 12.3784C19.7151 11.466 18.5508 10.845 17.2836 10.594C16.0164 10.343 14.7033 10.4733 13.5101 10.9683C12.3169 11.4633 11.2972 12.3008 10.5798 13.3751C9.86238 14.4494 9.4795 15.7122 9.4795 17.004C9.4795 18.2958 9.86238 19.5586 10.5798 20.6329C11.2972 21.7072 12.3169 22.5447 13.5101 23.0397C14.7033 23.5347 16.0164 23.665 17.2836 23.414C18.5508 23.163 19.7151 22.542 20.6296 21.6296L21.2779 20.9812L22.572 22.2779L21.9156 22.9156C20.7729 24.057 19.3243 24.8431 17.7446 25.1792C16.165 25.5152 14.5218 25.3867 13.0135 24.8092C11.5052 24.2318 10.1964 23.23 9.24509 21.9249C8.29376 20.6198 7.7406 19.0672 7.65242 17.4546C7.56423 15.8419 7.9448 14.2383 8.74815 12.8372C9.55151 11.4362 10.7433 10.2977 12.1796 9.55916C13.6159 8.82067 15.2353 8.51378 16.8422 8.67556C18.4491 8.83734 19.9748 9.46087 21.2351 10.4709L22.6443 9.06161C21.1055 7.76958 19.2241 6.95326 17.2293 6.71221C15.2346 6.47116 13.2128 6.81581 11.4106 7.70411C9.60834 8.59241 8.10356 9.98597 7.07976 11.7148C6.05596 13.4437 5.5574 15.4331 5.64487 17.4405C5.73235 19.4478 6.40208 21.3863 7.57239 23.0196C8.7427 24.6528 10.363 25.9102 12.2357 26.6383C14.1083 27.3665 16.1524 27.534 18.1187 27.1203C20.0849 26.7066 21.8882 25.7297 23.3087 24.3088L23.9571 23.6604L27.9491 27.655L27.3275 28.3275C25.842 29.8137 24.0782 30.9925 22.1368 31.7965C20.1954 32.6006 18.1146 33.0141 16.0134 33.0134L16 33Z" fill="#2A2F36"/>
</g>
<defs>
<clipPath id="clip0_269_4109">
<rect width="28" height="34" fill="white"/>
</clipPath>
</defs>
</svg>
